<svg width="57" height="51" viewBox="0 0 57 51" fill="none" xmlns="http://www.w3.org/2000/svg">
<path d="M42.8462 45.5324C47.6212 45.5324 51.4921 41.6614 51.4921 36.8864C51.4921 32.1114 47.6212 28.2404 42.8462 28.2404C38.0711 28.2404 34.2002 32.1114 34.2002 36.8864C34.2002 41.6614 38.0711 45.5324 42.8462 45.5324Z" stroke="#AFB0B9" stroke-width="1.65291" stroke-linecap="round" stroke-linejoin="round"/>
<path d="M42.8467 28.2403V24.5349" stroke="#AFB0B9" stroke-width="1.65291" stroke-linecap="round" stroke-linejoin="round"/>
<path d="M48.96 30.7724L51.5797 28.1527" stroke="#AFB0B9" stroke-width="1.65291" stroke-linecap="round" stroke-linejoin="round"/>
<path d="M51.4922 36.8864H55.1976" stroke="#AFB0B9" stroke-width="1.65291" stroke-linecap="round" stroke-linejoin="round"/>
<path d="M48.96 43.0002L51.5797 45.62" stroke="#AFB0B9" stroke-width="1.65291" stroke-linecap="round" stroke-linejoin="round"/>
<path d="M42.8467 45.5323V49.2377" stroke="#AFB0B9" stroke-width="1.65291" stroke-linecap="round" stroke-linejoin="round"/>
<path d="M36.732 43.0002L34.1123 45.62" stroke="#AFB0B9" stroke-width="1.65291" stroke-linecap="round" stroke-linejoin="round"/>
<path d="M34.2005 36.8864H30.4951" stroke="#AFB0B9" stroke-width="1.65291" stroke-linecap="round" stroke-linejoin="round"/>
<path d="M36.732 30.7724L34.1123 28.1527" stroke="#AFB0B9" stroke-width="1.65291" stroke-linecap="round" stroke-linejoin="round"/>
<path d="M42.8463 39.3566C44.2106 39.3566 45.3165 38.2507 45.3165 36.8864C45.3165 35.5221 44.2106 34.4161 42.8463 34.4161C41.482 34.4161 40.376 35.5221 40.376 36.8864C40.376 38.2507 41.482 39.3566 42.8463 39.3566Z" fill="#AFB0B9"/>
<path d="M23.0841 31.9458H0.851562C0.851562 36.0391 4.16915 39.3566 8.26239 39.3566H23.0841" stroke="#494C63" stroke-width="1.65291" stroke-linecap="round" stroke-linejoin="round"/>
<path d="M5.79199 25.7701V6.00788C5.79199 3.27946 8.00413 1.06732 10.7325 1.06732H45.3164C48.0449 1.06732 50.257 3.27946 50.257 6.00788V19.5944" stroke="#494C63" stroke-width="1.65291" stroke-linecap="round" stroke-linejoin="round"/>
<path d="M26.7891 8.47815H29.2593" stroke="#494C63" stroke-width="1.65291" stroke-linecap="round" stroke-linejoin="round"/>
</svg>
