<svg width="65" height="64" viewBox="0 0 65 64" fill="none" xmlns="http://www.w3.org/2000/svg">
<path d="M29.6489 59.9706C43.4758 59.9706 54.6846 48.7617 54.6846 34.9349C54.6846 21.1081 43.4758 9.89926 29.6489 9.89926C15.8221 9.89926 4.61328 21.1081 4.61328 34.9349C4.61328 48.7617 15.8221 59.9706 29.6489 59.9706Z" stroke="#494C63" stroke-width="1.88904" stroke-linecap="round" stroke-linejoin="round"/>
<path d="M60.2479 48.8436C63.2828 54.816 63.956 59.4657 61.8502 61.5729C55.1421 68.281 31.3999 47.8422 24.0839 40.497C7.8483 24.3268 -1.62769 7.3665 3.00808 2.73073C5.11385 0.624956 9.7677 1.30092 15.7401 4.3358" stroke="#AFB0B9" stroke-width="1.88904" stroke-linecap="round" stroke-linejoin="round"/>
<path d="M16.4787 46.0619C17.6072 46.0619 18.5219 45.1471 18.5219 44.0187C18.5219 42.8903 17.6072 41.9755 16.4787 41.9755C15.3503 41.9755 14.4355 42.8903 14.4355 44.0187C14.4355 45.1471 15.3503 46.0619 16.4787 46.0619Z" fill="#494C63"/>
<path d="M41.4711 41.8893C42.6233 41.8893 43.5574 40.9552 43.5574 39.803C43.5574 38.6507 42.6233 37.7167 41.4711 37.7167C40.3188 37.7167 39.3848 38.6507 39.3848 39.803C39.3848 40.9552 40.3188 41.8893 41.4711 41.8893Z" fill="#494C63"/>
<path d="M32.4304 30.7623C34.7349 30.7623 36.603 28.8942 36.603 26.5897C36.603 24.2853 34.7349 22.4171 32.4304 22.4171C30.126 22.4171 28.2578 24.2853 28.2578 26.5897C28.2578 28.8942 30.126 30.7623 32.4304 30.7623Z" stroke="#494C63" stroke-width="1.88904" stroke-linecap="round" stroke-linejoin="round"/>
</svg>
