<svg width="59" height="58" viewBox="0 0 59 58" fill="none" xmlns="http://www.w3.org/2000/svg">
<path d="M3 18.3809C3 7.7038 8.33856 2.36523 19.0157 2.36523H40.3699C51.0471 2.36523 56.3856 7.7038 56.3856 18.3809V31.7273C56.3856 42.4045 51.0471 47.743 40.3699 47.743H39.0353C38.2078 47.743 37.407 48.1434 36.8999 48.8107L32.896 54.1493C31.1342 56.4983 28.2514 56.4983 26.4897 54.1493L22.4858 48.8107C22.0587 48.2235 21.071 47.743 20.3503 47.743H19.0157C8.33856 47.743 3 45.0737 3 31.7273V29.058" stroke="#AAAAAA" stroke-width="4.00392" stroke-miterlimit="10" stroke-linecap="round" stroke-linejoin="round"/>
<path d="M40.3604 26.3889H40.3841" stroke="#AAAAAA" stroke-width="5.33856" stroke-linecap="round" stroke-linejoin="round"/>
<path d="M29.6777 26.3889H29.7018" stroke="#AAAAAA" stroke-width="5.33856" stroke-linecap="round" stroke-linejoin="round"/>
<path d="M19.001 26.3888H19.0249" stroke="#AAAAAA" stroke-width="5.33856" stroke-linecap="round" stroke-linejoin="round"/>
</svg>
