<svg width="75" height="75" viewBox="0 0 75 75" fill="none" xmlns="http://www.w3.org/2000/svg">
<path d="M23.4375 70.3121C26.0263 70.3121 28.125 68.2135 28.125 65.6246C28.125 63.0358 26.0263 60.9371 23.4375 60.9371C20.8487 60.9371 18.75 63.0358 18.75 65.6246C18.75 68.2135 20.8487 70.3121 23.4375 70.3121Z" fill="#AAAAAA"/>
<path d="M56.25 70.3121C58.8388 70.3121 60.9375 68.2135 60.9375 65.6246C60.9375 63.0358 58.8388 60.9371 56.25 60.9371C53.6612 60.9371 51.5625 63.0358 51.5625 65.6246C51.5625 68.2135 53.6612 70.3121 56.25 70.3121Z" fill="#AAAAAA"/>
<path d="M65.625 16.4064H13.6406L11.7187 6.56267C11.6092 6.0253 11.3146 5.54338 10.8864 5.20078C10.4581 4.85818 9.92331 4.67661 9.375 4.68767H0V9.37517H7.45312L16.4062 54.3752C16.5158 54.9125 16.8104 55.3945 17.2386 55.7371C17.6669 56.0797 18.2017 56.2612 18.75 56.2502H60.9375V51.5627H20.6719L18.75 42.1877H60.9375C61.4793 42.2009 62.0089 42.026 62.4362 41.6927C62.8636 41.3594 63.1622 40.8882 63.2812 40.3595L67.9687 19.2658C68.0473 18.918 68.0455 18.5569 67.9634 18.21C67.8813 17.8631 67.7212 17.5394 67.4952 17.2637C67.2692 16.988 66.9833 16.7674 66.6592 16.6189C66.3351 16.4703 65.9814 16.3977 65.625 16.4064ZM59.0625 37.5002H17.8594L14.5781 21.0939H62.6953L59.0625 37.5002Z" fill="#AAAAAA"/>
</svg>
