<svg width="119" height="119" viewBox="0 0 119 119" fill="none" xmlns="http://www.w3.org/2000/svg">
<g filter="url(#filter0_d_908_2526)">
<rect x="22" y="22" width="59" height="59" rx="15" fill="white"/>
<path d="M56.3991 63.4167C56.3991 63.1294 56.285 62.8538 56.0818 62.6507C55.8786 62.4475 55.6031 62.3334 55.3158 62.3334H48.8158C48.5284 62.3334 48.2529 62.4475 48.0497 62.6507C47.8466 62.8538 47.7324 63.1294 47.7324 63.4167C47.7324 63.704 47.8466 63.9796 48.0497 64.1827C48.2529 64.3859 48.5284 64.5 48.8158 64.5H55.3158C55.6031 64.5 55.8786 64.3859 56.0818 64.1827C56.285 63.9796 56.3991 63.704 56.3991 63.4167Z" fill="black"/>
<path d="M57.4183 58H50.9183C50.631 58 50.3554 58.1141 50.1523 58.3173C49.9491 58.5205 49.835 58.796 49.835 59.0833C49.835 59.3707 49.9491 59.6462 50.1523 59.8494C50.3554 60.0525 50.631 60.1667 50.9183 60.1667H57.4183C57.7056 60.1667 57.9812 60.0525 58.1843 59.8494C58.3875 59.6462 58.5016 59.3707 58.5016 59.0833C58.5016 58.796 58.3875 58.5205 58.1843 58.3173C57.9812 58.1141 57.7056 58 57.4183 58Z" fill="black"/>
<path d="M56.8343 66.6667H50.3343C50.047 66.6667 49.7714 66.7808 49.5683 66.984C49.3651 67.1872 49.251 67.4627 49.251 67.75C49.251 68.0373 49.3651 68.3129 49.5683 68.5161C49.7714 68.7192 50.047 68.8334 50.3343 68.8334H56.8343C57.1216 68.8334 57.3972 68.7192 57.6003 68.5161C57.8035 68.3129 57.9176 68.0373 57.9176 67.75C57.9176 67.4627 57.8035 67.1872 57.6003 66.984C57.3972 66.7808 57.1216 66.6667 56.8343 66.6667Z" fill="black"/>
<path d="M68.4245 66.6667H60.8411C60.5538 66.6667 60.2783 66.7808 60.0751 66.984C59.8719 67.1872 59.7578 67.4627 59.7578 67.75C59.7578 68.0373 59.8719 68.3129 60.0751 68.5161C60.2783 68.7192 60.5538 68.8334 60.8411 68.8334H68.4245C68.7118 68.8334 68.9873 68.7192 69.1905 68.5161C69.3937 68.3129 69.5078 68.0373 69.5078 67.75C69.5078 67.4627 69.3937 67.1872 69.1905 66.984C68.9873 66.7808 68.7118 66.6667 68.4245 66.6667Z" fill="black"/>
<path d="M69.5085 62.3334H61.9251C61.6378 62.3334 61.3623 62.4475 61.1591 62.6507C60.9559 62.8538 60.8418 63.1294 60.8418 63.4167C60.8418 63.704 60.9559 63.9796 61.1591 64.1827C61.3623 64.3859 61.6378 64.5 61.9251 64.5H69.5085C69.7958 64.5 70.0713 64.3859 70.2745 64.1827C70.4777 63.9796 70.5918 63.704 70.5918 63.4167C70.5918 63.1294 70.4777 62.8538 70.2745 62.6507C70.0713 62.4475 69.7958 62.3334 69.5085 62.3334Z" fill="black"/>
<path d="M69.5525 60.1667C69.235 56.3522 68.1984 52.6323 66.4975 49.2034C64.8681 46.1047 62.5204 43.4413 59.6508 41.4359L62.2508 35.705C62.3346 35.5338 62.3717 35.3434 62.3584 35.1532C62.3451 34.9629 62.2818 34.7796 62.175 34.6217C62.0763 34.4832 61.9465 34.3698 61.7959 34.2907C61.6454 34.2117 61.4783 34.1692 61.3083 34.1667H43.6174C43.4353 34.1662 43.256 34.2117 43.0961 34.2989C42.9363 34.3861 42.8009 34.5122 42.7027 34.6655C42.6044 34.8188 42.5464 34.9945 42.534 35.1762C42.5215 35.3579 42.5551 35.5397 42.6316 35.705L45.2858 41.4575C42.4371 43.4649 40.1055 46.1195 38.4824 49.2034C36.1533 53.5367 35.4274 58.8342 35.2324 62.5067C35.2005 63.0443 35.2803 63.5828 35.4667 64.088C35.6532 64.5933 35.9423 65.0545 36.3158 65.4425C36.7083 65.8238 37.1732 66.1228 37.6829 66.3218C38.1927 66.5209 38.7371 66.616 39.2841 66.6017H46.0008V64.5H39.1974C38.9523 64.4993 38.7098 64.449 38.4845 64.3522C38.2593 64.2554 38.0559 64.114 37.8866 63.9367C37.7171 63.7608 37.5861 63.5514 37.5022 63.3219C37.4183 63.0925 37.3831 62.848 37.3991 62.6042C37.5508 59.7767 38.1466 54.3925 40.3891 50.2C41.9699 47.1961 44.3076 44.6568 47.1708 42.8334H48.2541C47.52 43.8489 46.8436 44.9051 46.2283 45.9967C45.6015 47.1583 45.069 48.3683 44.6358 49.615L46.1199 50.6117C46.5584 49.3182 47.0982 48.0612 47.7341 46.8525C48.5151 45.4471 49.4024 44.1034 50.3883 42.8334H51.4716C52.1984 44.5704 52.7113 46.3893 52.9991 48.25C53.2344 49.6314 53.3504 51.0304 53.3458 52.4317L55.0575 51.2292C55.0097 50.1397 54.894 49.0542 54.7108 47.9792C54.4201 46.2222 53.9556 44.4985 53.3241 42.8334H54.1691L55.155 40.6667H47.3116L45.3074 36.3334H59.6183L56.91 42.2592C57.3742 42.5079 57.8196 42.7903 58.2425 43.1042C60.8968 44.9355 63.0737 47.3761 64.5908 50.2217C66.1104 53.3419 67.0536 56.711 67.375 60.1667H69.5525Z" fill="black"/>
</g>
<defs>
<filter id="filter0_d_908_2526" x="0" y="0" width="119" height="119" filterUnits="userSpaceOnUse" color-interpolation-filters="sRGB">
<feFlood flood-opacity="0" result="BackgroundImageFix"/>
<feColorMatrix in="SourceAlpha" type="matrix" values="0 0 0 0 0 0 0 0 0 0 0 0 0 0 0 0 0 0 127 0" result="hardAlpha"/>
<feOffset dx="8" dy="8"/>
<feGaussianBlur stdDeviation="15"/>
<feComposite in2="hardAlpha" operator="out"/>
<feColorMatrix type="matrix" values="0 0 0 0 0 0 0 0 0 0 0 0 0 0 0 0 0 0 0.2 0"/>
<feBlend mode="normal" in2="BackgroundImageFix" result="effect1_dropShadow_908_2526"/>
<feBlend mode="normal" in="SourceGraphic" in2="effect1_dropShadow_908_2526" result="shape"/>
</filter>
</defs>
</svg>
