<svg width="56" height="56" viewBox="0 0 56 56" fill="none" xmlns="http://www.w3.org/2000/svg">
<path d="M1 31C0.734784 31 0.48043 30.8946 0.292893 30.7071C0.105357 30.5196 0 30.2652 0 30V17C5.66374e-05 16.7348 0.105451 16.4805 0.293 16.293L16.293 0.293C16.4805 0.105451 16.7348 5.66374e-05 17 0H25C25.2652 0 25.5196 0.105357 25.7071 0.292893C25.8946 0.48043 26 0.734784 26 1C26 1.26522 25.8946 1.51957 25.7071 1.70711C25.5196 1.89464 25.2652 2 25 2H17.414L2 17.414V30C2 30.2652 1.89464 30.5196 1.70711 30.7071C1.51957 30.8946 1.26522 31 1 31Z" fill="#494C63"/>
<path d="M41.707 52.293L29 39.586V32.9C30.2141 32.6521 31.2928 31.9624 32.0272 30.9644C32.7616 29.9664 33.0992 28.7312 32.9747 27.4984C32.8502 26.2656 32.2723 25.123 31.3532 24.292C30.434 23.4611 29.2391 23.001 28 23.001C26.7609 23.001 25.566 23.4611 24.6469 24.292C23.7277 25.123 23.1499 26.2656 23.0253 27.4984C22.9008 28.7312 23.2384 29.9664 23.9728 30.9644C24.7072 31.9624 25.786 32.6521 27 32.9V40C27.0001 40.2652 27.1055 40.5195 27.293 40.707L40.293 53.707C40.4816 53.8891 40.7342 53.9899 40.9964 53.9876C41.2586 53.9854 41.5094 53.8802 41.6948 53.6948C41.8802 53.5094 41.9854 53.2586 41.9877 52.9964C41.99 52.7342 41.8892 52.4816 41.707 52.293Z" fill="#494C63"/>
<path d="M21 5.00001C20.0966 4.99855 19.2097 5.24228 18.4339 5.70521C17.6581 6.16815 17.0225 6.83292 16.5948 7.62868C16.1671 8.42444 15.9634 9.32134 16.0053 10.2238C16.0473 11.1262 16.3333 12.0004 16.833 12.753L7.293 22.293C7.10545 22.4805 7.00006 22.7348 7 23V36H1C0.734784 36 0.48043 36.1054 0.292893 36.2929C0.105357 36.4804 0 36.7348 0 37C0 37.2652 0.105357 37.5196 0.292893 37.7071C0.48043 37.8947 0.734784 38 1 38H8C8.26522 38 8.51957 37.8947 8.70711 37.7071C8.89464 37.5196 9 37.2652 9 37V23.414L18.247 14.167C18.8974 14.5983 19.6398 14.8714 20.4147 14.9644C21.1896 15.0574 21.9755 14.9676 22.7095 14.7024C23.4435 14.4372 24.1053 14.0038 24.6417 13.437C25.1782 12.8702 25.5746 12.1856 25.799 11.4381C26.0235 10.6907 26.0699 9.901 25.9345 9.13239C25.7991 8.36377 25.4856 7.63753 25.0191 7.01178C24.5527 6.38604 23.9463 5.87818 23.2484 5.52884C22.5505 5.17951 21.7805 4.9984 21 5.00001Z" fill="#494C63"/>
<path d="M54.9997 25C54.7345 25 54.4801 25.1054 54.2926 25.2929C54.105 25.4804 53.9997 25.7348 53.9997 26V38.586L50.7527 41.833C49.7161 41.1469 48.4616 40.8702 47.2326 41.0567C46.0036 41.2431 44.8876 41.8793 44.1011 42.8419C43.3147 43.8046 42.9137 45.025 42.976 46.2665C43.0384 47.508 43.5596 48.6821 44.4386 49.5611C45.3176 50.4401 46.4917 50.9613 47.7332 51.0236C48.9747 51.086 50.1951 50.685 51.1577 49.8985C52.1204 49.112 52.7566 47.9961 52.943 46.767C53.1294 45.538 52.8528 44.2836 52.1667 43.247L55.7067 39.707C55.8942 39.5195 55.9996 39.2652 55.9997 39V26C55.9997 25.7348 55.8943 25.4804 55.7068 25.2929C55.5193 25.1054 55.2649 25 54.9997 25Z" fill="#494C63"/>
<path d="M48 36C47.7348 36 47.4804 35.8946 47.2929 35.7071C47.1054 35.5196 47 35.2652 47 35V19C47 18.7348 47.1054 18.4804 47.2929 18.2929C47.4804 18.1054 47.7348 18 48 18H55C55.2652 18 55.5196 18.1054 55.7071 18.2929C55.8946 18.4804 56 18.7348 56 19C56 19.2652 55.8946 19.5196 55.7071 19.7071C55.5196 19.8946 55.2652 20 55 20H49V35C49 35.2652 48.8946 35.5196 48.7071 35.7071C48.5196 35.8946 48.2652 36 48 36Z" fill="#494C63"/>
<path d="M47 4C46.0202 3.9999 45.0624 4.28973 44.247 4.833L39.707 0.293C39.5195 0.105451 39.2652 5.66374e-05 39 0H31C30.7348 0 30.4804 0.105357 30.2929 0.292893C30.1054 0.48043 30 0.734784 30 1V9C30.0001 9.26519 30.1054 9.51951 30.293 9.707L40 19.414V32.586L35.293 37.293C35.1975 37.3852 35.1213 37.4956 35.0689 37.6176C35.0165 37.7396 34.9889 37.8708 34.9878 38.0036C34.9866 38.1364 35.0119 38.2681 35.0622 38.391C35.1125 38.5139 35.1867 38.6255 35.2806 38.7194C35.3745 38.8133 35.4862 38.8875 35.609 38.9378C35.7319 38.9881 35.8636 39.0134 35.9964 39.0122C36.1292 39.0111 36.2604 38.9835 36.3824 38.9311C36.5044 38.8787 36.6148 38.8025 36.707 38.707L41.707 33.707C41.8946 33.5195 41.9999 33.2652 42 33V19C41.9999 18.7348 41.8946 18.4805 41.707 18.293L32 8.586V2H38.586L42.833 6.247C42.2198 7.17668 41.9345 8.28448 42.0225 9.3947C42.1104 10.5049 42.5664 11.554 43.3183 12.3756C44.0702 13.1972 45.0749 13.7442 46.173 13.93C47.2711 14.1157 48.3997 13.9295 49.38 13.4009C50.3603 12.8723 51.136 12.0316 51.5841 11.0121C52.0323 9.99251 52.1273 8.85252 51.8539 7.77288C51.5806 6.69324 50.9546 5.73576 50.0753 5.05229C49.196 4.36881 48.1137 3.99847 47 4Z" fill="#AFB0B9"/>
<path d="M33.7067 54.293L15.9997 36.586V27.414L23.4137 20H30.9997C31.2649 20 31.5192 19.8946 31.7068 19.7071C31.8943 19.5196 31.9997 19.2652 31.9997 19C31.9997 18.7348 31.8943 18.4804 31.7068 18.2929C31.5192 18.1054 31.2649 18 30.9997 18H22.9997C22.7345 18.0001 22.4802 18.1054 22.2927 18.293L14.2927 26.293C14.1051 26.4805 13.9997 26.7348 13.9997 27V37C13.9997 37.2652 14.1051 37.5195 14.2927 37.707L30.5857 54H17.4127L13.1597 49.767C13.8538 48.7301 14.1381 47.4723 13.9572 46.2376C13.7763 45.003 13.1433 43.8796 12.1809 43.0853C11.2185 42.2911 9.99535 41.8827 8.74882 41.9393C7.50229 41.996 6.32125 42.5137 5.43486 43.3919C4.54848 44.2702 4.01996 45.4464 3.95184 46.6924C3.88373 47.9384 4.28089 49.1652 5.06626 50.1349C5.85163 51.1045 6.9692 51.7479 8.20212 51.9401C9.43505 52.1323 10.6954 51.8596 11.7387 51.175L16.2997 55.709C16.4858 55.8941 16.7372 55.9986 16.9997 56H32.9997C33.1974 56 33.3907 55.9413 33.5551 55.8314C33.7195 55.7215 33.8477 55.5654 33.9233 55.3827C33.999 55.2 34.0188 54.9989 33.9802 54.805C33.9417 54.611 33.8465 54.4328 33.7067 54.293Z" fill="#AFB0B9"/>
</svg>
