<svg width="37" height="60" viewBox="0 0 37 60" fill="none" xmlns="http://www.w3.org/2000/svg">
<path d="M7.5 3C5.01472 3 3 5.01472 3 7.5V52.5C3 54.9853 5.01472 57 7.5 57H28.5341C31.0194 57 33.0341 54.9853 33.0341 52.5V7.5C33.0341 5.01472 31.0194 3 28.5341 3H28.5C27.6716 3 27 3.67157 27 4.5C27 6.98528 24.9853 9 22.5 9H13.5C11.0147 9 9 6.98528 9 4.5C9 3.67157 8.32843 3 7.5 3ZM11.7439 3C11.9098 3.46917 12 3.97405 12 4.5C12 5.32843 12.6716 6 13.5 6H22.5C23.3284 6 24 5.32843 24 4.5C24 3.97405 24.0902 3.46917 24.2561 3H11.7439ZM0 7.5C0 3.35786 3.35786 0 7.5 0H28.5341C32.6762 0 36.0341 3.35786 36.0341 7.5V52.5C36.0341 56.6421 32.6762 60 28.5341 60H7.5C3.35786 60 0 56.6421 0 52.5V7.5Z" fill="#333333"/>
</svg>
