<svg width="52" height="52" viewBox="0 0 52 52" fill="none" xmlns="http://www.w3.org/2000/svg">
<path d="M26 52C40.3594 52 52 40.3594 52 26C52 11.6406 40.3594 0 26 0C11.6406 0 0 11.6406 0 26C0 40.3594 11.6406 52 26 52Z" fill="#7F54B3"/>
<path d="M32.2275 37.9629L25.1453 34.0192H9.64947C8.90275 34.0205 8.17282 33.7977 7.55407 33.3796C6.95196 32.9731 6.48074 32.4005 6.19755 31.7315C6.00214 31.2701 5.90179 30.774 5.90251 30.2729V17.7835C5.89781 17.2858 5.9945 16.7924 6.18667 16.3333C6.27965 16.1107 6.39403 15.8978 6.5282 15.6974C6.93267 15.0932 7.50387 14.6195 8.17242 14.3338C8.63412 14.1369 9.13102 14.036 9.63294 14.0371H42.3506C43.0972 14.0357 43.8271 14.2584 44.4458 14.6765C45.0479 15.083 45.5191 15.6555 45.8023 16.3245C45.9975 16.786 46.0975 17.2822 46.0965 17.7833V30.2729C46.0979 31.0197 45.8751 31.7496 45.457 32.3683C45.0504 32.9705 44.4779 33.4417 43.8088 33.7248C43.3473 33.9201 42.8511 34.0202 42.35 34.0192H30.6175L32.2284 37.9627L32.2275 37.9629ZM16.5899 24.5266C16.8092 25.2941 17.0523 26.0245 17.3127 26.6986C17.5593 27.3416 17.8409 27.9705 18.1564 28.5826C18.4415 29.1358 18.7633 29.6692 19.1197 30.1794C19.4445 30.6437 19.8061 31.0812 20.201 31.4876C20.3733 31.6729 20.5758 31.8277 20.7999 31.9453C20.9857 32.0417 21.1914 32.0932 21.4006 32.0956C21.4314 32.0956 21.4621 32.0945 21.4918 32.0922C21.6705 32.0789 21.8427 32.0198 21.992 31.9207C22.1455 31.8131 22.2709 31.6703 22.3577 31.5041C22.4401 31.3463 22.498 31.1768 22.5292 31.0015C22.5622 30.8114 22.5705 30.6178 22.5538 30.4255C22.4549 28.9208 22.6085 26.8262 23.0112 24.2002C23.1864 23.0094 23.4244 21.8286 23.724 20.6628C23.8555 20.1715 23.9953 19.7244 24.1394 19.3339C24.2672 18.9797 24.4198 18.635 24.5961 18.3023C24.7253 18.0622 24.7821 17.7897 24.7596 17.5179C24.7458 17.338 24.6951 17.1628 24.6106 17.0033C24.5213 16.8415 24.3997 16.6997 24.2533 16.5868C24.1227 16.482 23.9766 16.3984 23.8202 16.3389C23.6693 16.2828 23.5096 16.2541 23.3486 16.2541C23.3078 16.2541 23.2657 16.256 23.2237 16.2596C23.0016 16.271 22.7862 16.34 22.5987 16.4599C22.4066 16.5922 22.2507 16.7705 22.1452 16.9786C21.869 17.4926 21.6334 18.0273 21.4406 18.578C21.2064 19.2435 21.0079 19.921 20.846 20.6077C20.667 21.3532 20.5041 22.1816 20.3619 23.0695C20.2197 23.9575 20.0934 24.9326 19.9881 25.9648C19.6586 25.1245 19.3729 24.2676 19.1324 23.3976C18.871 22.4611 18.6366 21.4448 18.4358 20.377C18.3997 20.1704 18.3418 19.9683 18.263 19.774C18.1996 19.6172 18.1107 19.4719 18 19.344C17.9019 19.2333 17.7807 19.1453 17.6449 19.0864C17.5032 19.0277 17.351 18.9985 17.1977 19.0007C17.1642 19.0007 17.1298 19.0018 17.0954 19.004C16.8482 19.0215 16.6126 19.1157 16.4215 19.2735C16.1913 19.4705 16.0038 19.7123 15.8704 19.9843L12.2924 26.7978C11.6929 24.3825 11.1377 21.4634 10.6423 18.1217C10.6207 17.9435 10.5743 17.7692 10.5044 17.6039C10.4449 17.4649 10.3585 17.3392 10.25 17.2339C10.1439 17.1343 10.0176 17.0586 9.87966 17.0121C9.72269 16.9607 9.55829 16.9358 9.39315 16.9382C9.33663 16.9382 9.27926 16.9406 9.22047 16.9451C9.01262 16.956 8.80877 17.0065 8.61993 17.094C8.45006 17.1765 8.3029 17.2993 8.19121 17.4515C8.07389 17.6058 7.99004 17.7829 7.945 17.9714C7.89997 18.1599 7.89474 18.3557 7.92966 18.5464C8.40939 21.5949 8.87951 24.1844 9.32688 26.2421C9.55056 27.2709 9.77326 28.1883 9.98861 28.9685C10.204 29.7488 10.4185 30.4151 10.6257 30.9477C10.7423 31.2581 10.9138 31.545 11.132 31.7946C11.213 31.8814 11.3087 31.9532 11.4146 32.0066C11.509 32.0528 11.6126 32.077 11.7176 32.0772C11.7346 32.0772 11.7524 32.0772 11.7705 32.0753C11.9648 32.0543 12.1506 31.9837 12.3098 31.8702C12.5297 31.7165 12.7282 31.5341 12.8999 31.3279C13.1347 31.0506 13.3492 30.7567 13.542 30.4487C13.7633 30.1019 13.9973 29.6926 14.2376 29.2325C14.7441 28.1869 15.5356 26.6042 16.5905 24.5271L16.5899 24.5266ZM39.8085 18.0237C39.4293 18.0221 39.0517 18.0737 38.6868 18.177C38.3288 18.2804 37.9876 18.4351 37.6739 18.6364C37.3409 18.8523 37.0366 19.1096 36.7685 19.4022C36.467 19.7323 36.199 20.0915 35.9687 20.4746C35.7585 20.8177 35.5722 21.1749 35.4111 21.5436C35.2521 21.9086 35.119 22.2844 35.0128 22.6681C34.906 23.0553 34.8261 23.4494 34.7737 23.8477C34.7202 24.257 34.6936 24.6694 34.694 25.0823C34.6899 25.672 34.7557 26.2602 34.8901 26.8344C35.0136 27.3545 35.2118 27.854 35.4785 28.3173C35.6191 28.5653 35.7845 28.7984 35.9719 29.0132C36.1508 29.2169 36.3517 29.4 36.5711 29.5592C36.7912 29.7176 37.0282 29.8514 37.2776 29.958C37.8154 30.1837 38.3918 30.3033 38.9751 30.3104C39.3572 30.3121 39.7376 30.2605 40.1055 30.1573C40.4646 30.0544 40.8068 29.8996 41.1212 29.698C41.4537 29.4825 41.757 29.2252 42.0237 28.9322C42.323 28.6024 42.5882 28.2431 42.815 27.8599C43.0249 27.5132 43.2111 27.1528 43.3726 26.7812C43.5314 26.4144 43.6645 26.0371 43.7709 25.652C43.8776 25.2642 43.9574 24.8695 44.0099 24.4707C44.0633 24.0612 44.09 23.6487 44.0896 23.2358C44.1012 22.6446 44.0372 22.0544 43.8993 21.4794C43.7734 20.9655 43.5732 20.4728 43.3049 20.0168C43.1643 19.7688 42.999 19.5356 42.8115 19.3209C42.6326 19.1172 42.4316 18.9341 42.2122 18.775C41.9921 18.6166 41.7551 18.4828 41.5057 18.3762C40.9679 18.1504 40.3917 18.0305 39.8085 18.023V18.0237ZM29.58 18.0237C29.2009 18.0221 28.8233 18.0737 28.4585 18.177C28.1005 18.2804 27.7594 18.4351 27.4458 18.6364C27.1127 18.8523 26.8085 19.1097 26.5403 19.4022C26.2387 19.7323 25.9708 20.0915 25.7404 20.4746C25.5302 20.8177 25.3439 21.1749 25.1828 21.5436C25.0239 21.9086 24.8908 22.2844 24.7846 22.6681C24.6779 23.0553 24.598 23.4494 24.5456 23.8477C24.4922 24.257 24.4656 24.6694 24.4659 25.0823C24.4618 25.672 24.5276 26.2602 24.6619 26.8344C24.7854 27.3545 24.9835 27.854 25.2502 28.3173C25.3908 28.5653 25.5561 28.7984 25.7436 29.0132C25.9224 29.2169 26.1234 29.4 26.3427 29.5592C26.5629 29.7176 26.7999 29.8513 27.0493 29.958C27.5871 30.1837 28.1634 30.3033 28.7466 30.3104C29.1287 30.312 29.5092 30.2605 29.8771 30.1573C30.2362 30.0544 30.5784 29.8996 30.8929 29.698C31.2253 29.4825 31.5286 29.2252 31.7953 28.9322C32.0946 28.6024 32.3597 28.2431 32.5866 27.8599C32.7964 27.5132 32.9827 27.1528 33.1442 26.7812C33.3026 26.4145 33.4354 26.0373 33.5416 25.6523C33.6483 25.2644 33.7281 24.8697 33.7806 24.471C33.834 24.0615 33.8606 23.649 33.8603 23.2361C33.8608 22.9299 33.8445 22.624 33.8112 22.3196C33.7802 22.0368 33.7311 21.7563 33.6643 21.4797C33.6009 21.2187 33.519 20.9626 33.4191 20.7133C33.3225 20.4728 33.2078 20.2401 33.0759 20.0171C32.935 19.7687 32.7689 19.5355 32.5802 19.3211C32.4 19.1175 32.1977 18.9345 31.9773 18.7753C31.7569 18.6172 31.52 18.4835 31.2707 18.3765C30.7356 18.1497 30.1613 18.0297 29.5802 18.0233L29.58 18.0237ZM38.8756 27.5034C38.7359 27.5041 38.5978 27.4738 38.4713 27.4147C38.3447 27.3556 38.2329 27.2691 38.1438 27.1615C37.9572 26.9435 37.8125 26.6929 37.717 26.4222C37.6216 26.1772 37.5477 25.9243 37.4963 25.6664C37.4482 25.4257 37.4236 25.1808 37.4227 24.9353C37.4186 24.5348 37.4569 24.135 37.537 23.7425C37.6117 23.4025 37.7198 23.0707 37.8598 22.752C38.0079 22.4165 38.1898 22.0969 38.4025 21.7981C38.5939 21.4968 38.8384 21.2328 39.1241 21.0189C39.3418 20.8577 39.6042 20.7683 39.875 20.763C39.9509 20.7632 40.0266 20.7705 40.1011 20.7849C40.3098 20.8328 40.4979 20.9459 40.6381 21.1078C40.8248 21.3257 40.9695 21.5763 41.065 21.8469C41.1604 22.0919 41.2342 22.3448 41.2855 22.6026C41.3336 22.8433 41.3583 23.0881 41.3592 23.3336C41.3685 24.2415 41.1649 25.139 40.7648 25.9541C40.666 26.1481 40.5506 26.3332 40.4199 26.5073C40.296 26.6717 40.1563 26.8236 40.0029 26.9609C39.8287 27.1224 39.6328 27.2589 39.421 27.3664C39.2518 27.4525 39.0654 27.4993 38.8756 27.5034ZM28.631 27.5034C28.4914 27.5041 28.3533 27.4738 28.2267 27.4147C28.1001 27.3556 27.9883 27.2691 27.8992 27.1615C27.7125 26.9436 27.5678 26.6929 27.4723 26.4222C27.3769 26.1772 27.3031 25.9243 27.2518 25.6664C27.2037 25.4256 27.1791 25.1808 27.1783 24.9353C27.1741 24.5348 27.2124 24.135 27.2926 23.7425C27.3671 23.4025 27.4752 23.0707 27.6152 22.752C27.7635 22.4165 27.9455 22.0969 28.1584 21.7982C28.3497 21.4969 28.5943 21.2328 28.8801 21.019C29.0978 20.8579 29.3602 20.7684 29.6309 20.7631C29.7068 20.7633 29.7825 20.7706 29.857 20.785C30.0657 20.833 30.2537 20.9461 30.3939 21.1079C30.5807 21.3258 30.7253 21.5764 30.8207 21.8471C30.9161 22.0921 30.99 22.3449 31.0414 22.6028C31.0895 22.8435 31.1142 23.0883 31.115 23.3338C31.1279 23.74 31.0895 24.1463 31.0007 24.5429C30.9031 25.0324 30.7416 25.5069 30.5203 25.9542C30.4215 26.1482 30.3061 26.3333 30.1753 26.5074C30.0514 26.6718 29.9117 26.8237 29.7584 26.961C29.5842 27.1226 29.3884 27.2591 29.1766 27.3666C29.0073 27.4527 28.8207 27.4994 28.6307 27.5034H28.631Z" fill="white"/>
</svg>
