<svg width="64" height="55" viewBox="0 0 64 55" fill="none" xmlns="http://www.w3.org/2000/svg">
<path d="M22.8633 9.13281C22.8633 4.0889 26.9522 0 31.996 0C37.04 0 41.1289 4.0889 41.1289 9.13281C41.1289 14.1767 37.04 18.2656 31.996 18.2656C26.9522 18.2656 22.8633 14.1767 22.8633 9.13281ZM31.996 4.57095C29.4766 4.57095 27.4342 6.61335 27.4342 9.13281C27.4342 11.6522 29.4766 13.6946 31.996 13.6946C34.5155 13.6946 36.5579 11.6522 36.5579 9.13281C36.5579 6.61335 34.5155 4.57095 31.996 4.57095Z" fill="#AAAAAA"/>
<path d="M45.71 11.4182C45.71 7.63148 48.7798 4.56177 52.5664 4.56177C56.353 4.56177 59.4228 7.63148 59.4228 11.4182C59.4228 15.2049 56.353 18.2746 52.5664 18.2746C48.7798 18.2746 45.71 15.2049 45.71 11.4182ZM52.5664 9.13272C51.3044 9.13272 50.2809 10.156 50.2809 11.4182C50.2809 12.6804 51.3044 13.7037 52.5664 13.7037C53.8284 13.7037 54.8519 12.6804 54.8519 11.4182C54.8519 10.156 53.8284 9.13272 52.5664 9.13272Z" fill="#AAAAAA"/>
<path d="M11.4277 4.56177C7.641 4.56177 4.57129 7.63148 4.57129 11.4182C4.57129 15.2049 7.641 18.2746 11.4277 18.2746C15.2144 18.2746 18.2842 15.2049 18.2842 11.4182C18.2842 7.63148 15.2144 4.56177 11.4277 4.56177ZM9.14224 11.4182C9.14224 10.156 10.1655 9.13272 11.4277 9.13272C12.6899 9.13272 13.7132 10.156 13.7132 11.4182C13.7132 12.6804 12.6899 13.7037 11.4277 13.7037C10.1655 13.7037 9.14224 12.6804 9.14224 11.4182Z" fill="#AAAAAA"/>
<path d="M14.9359 22.8457C14.158 24.1904 13.7129 25.7515 13.7129 27.4167H4.57095V38.8455C4.57095 42.6325 7.64067 45.7019 11.4274 45.7019C12.3962 45.7019 13.318 45.5012 14.1535 45.1387C14.4922 46.6536 15.0189 48.0971 15.7078 49.4441C14.3857 49.9785 12.9409 50.2728 11.4274 50.2728C5.11622 50.2728 0 45.1566 0 38.8455V27.4167C0 24.8922 2.04651 22.8457 4.57095 22.8457H14.9359Z" fill="#AAAAAA"/>
<path d="M48.2861 49.4441C49.6081 49.9785 51.0529 50.2728 52.5664 50.2728C58.8775 50.2728 63.9938 45.1566 63.9938 38.8455V27.4167C63.9938 24.8922 61.9473 22.8457 59.4228 22.8457H49.0577C49.8357 24.1904 50.2809 25.7515 50.2809 27.4167L59.4228 27.4167V38.8455C59.4228 42.6325 56.353 45.7019 52.5664 45.7019C51.5978 45.7019 50.6758 45.5012 49.8403 45.1387C49.5016 46.6536 48.975 48.0971 48.2861 49.4441Z" fill="#AAAAAA"/>
<path d="M22.8551 22.8457C20.3307 22.8457 18.2842 24.8922 18.2842 27.4167V41.1309C18.2842 48.7045 24.4237 54.8438 31.997 54.8438C39.5704 54.8438 45.7099 48.7045 45.7099 41.1309V27.4167C45.7099 24.8922 43.6635 22.8457 41.1389 22.8457H22.8551ZM22.8551 27.4167H41.1389V41.1309C41.1389 46.18 37.046 50.2728 31.997 50.2728C26.9481 50.2728 22.8551 46.18 22.8551 41.1309V27.4167Z" fill="#AAAAAA"/>
</svg>
