<svg width="63" height="63" viewBox="0 0 63 63" fill="none" xmlns="http://www.w3.org/2000/svg">
<path fill-rule="evenodd" clip-rule="evenodd" d="M6.3 59.85H44.1C45.8397 59.85 47.25 58.4397 47.25 56.7V6.3C47.25 4.5603 45.8397 3.15 44.1 3.15H6.3C4.5603 3.15 3.15 4.5603 3.15 6.3V56.7C3.15 58.4397 4.5603 59.85 6.3 59.85ZM44.1 63H6.3C2.8206 63 0 60.1793 0 56.7V6.3C0 2.8206 2.8206 0 6.3 0H44.1C47.5793 0 50.4 2.8206 50.4 6.3V56.7C50.4 60.1793 47.5793 63 44.1 63Z" fill="#AAAAAA"/>
<path fill-rule="evenodd" clip-rule="evenodd" d="M22.0498 14.1751C22.0498 13.3052 22.7549 12.6001 23.6248 12.6001H42.5248C43.3947 12.6001 44.0998 13.3052 44.0998 14.1751C44.0998 15.045 43.3947 15.7501 42.5248 15.7501H23.6248C22.7549 15.7501 22.0498 15.045 22.0498 14.1751Z" fill="#AAAAAA"/>
<path fill-rule="evenodd" clip-rule="evenodd" d="M22.0498 20.4749C22.0498 19.605 22.7549 18.8999 23.6248 18.8999H42.5248C43.3947 18.8999 44.0998 19.605 44.0998 20.4749C44.0998 21.3448 43.3947 22.0499 42.5248 22.0499H23.6248C22.7549 22.0499 22.0498 21.3448 22.0498 20.4749Z" fill="#AAAAAA"/>
<path fill-rule="evenodd" clip-rule="evenodd" d="M22.0498 33.075C22.0498 32.2051 22.7549 31.5 23.6248 31.5H42.5248C43.3947 31.5 44.0998 32.2051 44.0998 33.075C44.0998 33.9449 43.3947 34.65 42.5248 34.65H23.6248C22.7549 34.65 22.0498 33.9449 22.0498 33.075Z" fill="#AAAAAA"/>
<path fill-rule="evenodd" clip-rule="evenodd" d="M22.0498 39.3758C22.0498 38.5059 22.7549 37.8008 23.6248 37.8008H42.5248C43.3947 37.8008 44.0998 38.5059 44.0998 39.3758C44.0998 40.2457 43.3947 40.9508 42.5248 40.9508H23.6248C22.7549 40.9508 22.0498 40.2457 22.0498 39.3758Z" fill="#AAAAAA"/>
<path fill-rule="evenodd" clip-rule="evenodd" d="M9.4498 34.65V39.375H14.1748V34.65H9.4498ZM7.8748 31.5H15.7498C16.6197 31.5 17.3248 32.2051 17.3248 33.075V40.95C17.3248 41.8199 16.6197 42.525 15.7498 42.525H7.8748C7.00496 42.525 6.2998 41.8199 6.2998 40.95V33.075C6.2998 32.2051 7.00496 31.5 7.8748 31.5Z" fill="#AAAAAA"/>
<path fill-rule="evenodd" clip-rule="evenodd" d="M18.4385 13.0614C19.0535 13.6764 19.0535 14.6737 18.4385 15.2887L11.0248 22.7024L6.76111 18.4387C6.14604 17.8237 6.14604 16.8264 6.76111 16.2114C7.37619 15.5963 8.37342 15.5963 8.9885 16.2114L11.0248 18.2477L16.2111 13.0614C16.8262 12.4463 17.8235 12.4463 18.4385 13.0614Z" fill="#AAAAAA"/>
<path fill-rule="evenodd" clip-rule="evenodd" d="M59.8498 31.4991H56.6998V55.6491L58.2748 57.7492L59.8498 55.6491V31.4991ZM62.9998 56.6991L58.2748 62.9991L53.5498 56.6991V28.3491H62.9998V56.6991Z" fill="#AAAAAA"/>
<path fill-rule="evenodd" clip-rule="evenodd" d="M59.8498 20.4742H56.6998V23.6242H59.8498V20.4742ZM56.6998 17.3242H59.8498C61.5895 17.3242 62.9998 18.7345 62.9998 20.4742V26.7742H53.5498V20.4742C53.5498 18.7345 54.9601 17.3242 56.6998 17.3242Z" fill="#AAAAAA"/>
</svg>
