<svg width="60" height="55" viewBox="0 0 60 55" fill="none" xmlns="http://www.w3.org/2000/svg">
<path d="M13.6135 11.4367C13.6135 9.99251 14.1872 8.60744 15.2084 7.58623C16.2297 6.56502 17.6147 5.99131 19.0589 5.99131C19.781 5.99131 20.4736 5.70445 20.9842 5.19385C21.4948 4.68324 21.7816 3.99071 21.7816 3.2686C21.7816 2.5465 21.4948 1.85397 20.9842 1.34336C20.4736 0.832754 19.781 0.545898 19.0589 0.545898C16.1705 0.545898 13.4004 1.69332 11.358 3.73575C9.31554 5.77817 8.16812 8.54829 8.16812 11.4367V19.6048C8.16812 21.049 7.5944 22.4341 6.57319 23.4553C5.55198 24.4765 4.16692 25.0502 2.72271 25.0502C2.0006 25.0502 1.30807 25.3371 0.797462 25.8477C0.286855 26.3583 0 27.0508 0 27.7729C0 28.4951 0.286855 29.1876 0.797462 29.6982C1.30807 30.2088 2.0006 30.4957 2.72271 30.4957C4.16692 30.4957 5.55198 31.0694 6.57319 32.0906C7.5944 33.1118 8.16812 34.4969 8.16812 35.9411V44.1092C8.16812 46.9976 9.31554 49.7677 11.358 51.8102C13.4004 53.8526 16.1705 55 19.0589 55C19.781 55 20.4736 54.7131 20.9842 54.2025C21.4948 53.6919 21.7816 52.9994 21.7816 52.2773C21.7816 51.5552 21.4948 50.8627 20.9842 50.3521C20.4736 49.8414 19.781 49.5546 19.0589 49.5546C17.6147 49.5546 16.2297 48.9809 15.2084 47.9597C14.1872 46.9385 13.6135 45.5534 13.6135 44.1092V35.9411C13.6048 34.3906 13.2651 32.8598 12.6171 31.4512C11.9691 30.0426 11.0278 28.7885 9.85619 27.7729C11.0278 26.7574 11.9691 25.5033 12.6171 24.0947C13.2651 22.6861 13.6048 21.1553 13.6135 19.6048V11.4367ZM57.1768 25.0502C55.7326 25.0502 54.3475 24.4765 53.3263 23.4553C52.3051 22.4341 51.7314 21.049 51.7314 19.6048V11.4367C51.7314 8.54829 50.584 5.77817 48.5415 3.73575C46.4991 1.69332 43.729 0.545898 40.8406 0.545898C40.1185 0.545898 39.4259 0.832754 38.9153 1.34336C38.4047 1.85397 38.1179 2.5465 38.1179 3.2686C38.1179 3.99071 38.4047 4.68324 38.9153 5.19385C39.4259 5.70445 40.1185 5.99131 40.8406 5.99131C42.2848 5.99131 43.6698 6.56502 44.6911 7.58623C45.7123 8.60744 46.286 9.99251 46.286 11.4367V19.6048C46.2947 21.1553 46.6345 22.6861 47.2824 24.0947C47.9304 25.5033 48.8717 26.7574 50.0433 27.7729C48.8717 28.7885 47.9304 30.0426 47.2824 31.4512C46.6345 32.8598 46.2947 34.3906 46.286 35.9411V44.1092C46.286 45.5534 45.7123 46.9385 44.6911 47.9597C43.6698 48.9809 42.2848 49.5546 40.8406 49.5546C40.1185 49.5546 39.4259 49.8414 38.9153 50.3521C38.4047 50.8627 38.1179 51.5552 38.1179 52.2773C38.1179 52.9994 38.4047 53.6919 38.9153 54.2025C39.4259 54.7131 40.1185 55 40.8406 55C43.729 55 46.4991 53.8526 48.5415 51.8102C50.584 49.7677 51.7314 46.9976 51.7314 44.1092V35.9411C51.7314 34.4969 52.3051 33.1118 53.3263 32.0906C54.3475 31.0694 55.7326 30.4957 57.1768 30.4957C57.8989 30.4957 58.5914 30.2088 59.1021 29.6982C59.6127 29.1876 59.8995 28.4951 59.8995 27.7729C59.8995 27.0508 59.6127 26.3583 59.1021 25.8477C58.5914 25.3371 57.8989 25.0502 57.1768 25.0502Z" fill="#333333"/>
</svg>
