<svg width="57" height="57" viewBox="0 0 57 57" fill="none" xmlns="http://www.w3.org/2000/svg">
<path fill-rule="evenodd" clip-rule="evenodd" d="M0 9.5C0 4.2533 4.2533 0 9.5 0H47.5C52.7467 0 57 4.2533 57 9.5V47.5C57 52.7467 52.7467 57 47.5 57H9.5C4.2533 57 0 52.7467 0 47.5V9.5ZM9.5 3.8C6.35197 3.8 3.8 6.35197 3.8 9.5V47.5C3.8 50.6479 6.35197 53.2 9.5 53.2H47.5C50.6479 53.2 53.2 50.6479 53.2 47.5V9.5C53.2 6.35197 50.6479 3.8 47.5 3.8H9.5Z" fill="#AAAAAA"/>
<path fill-rule="evenodd" clip-rule="evenodd" d="M22.6001 20.0503C22.2783 19.4066 21.6205 19 20.9008 19C20.1811 19 19.5232 19.4066 19.2014 20.0503L11.6014 35.2503C11.1321 36.1889 11.5125 37.3301 12.4511 37.7994C13.3897 38.2687 14.5309 37.8883 15.0002 36.9497L16.3751 34.2H25.4266L26.8014 36.9497C27.2707 37.8883 28.4118 38.2687 29.3504 37.7994C30.289 37.3301 30.6694 36.1889 30.2001 35.2503L22.6001 20.0503ZM23.5266 30.4L20.9008 25.1484L18.2751 30.4H23.5266Z" fill="#AAAAAA"/>
<path fill-rule="evenodd" clip-rule="evenodd" d="M39.9 19C40.9492 19 41.8 19.8507 41.8 20.9V36.1C41.8 37.1492 40.9492 38 39.9 38C38.8508 38 38 37.1492 38 36.1V20.9C38 19.8507 38.8508 19 39.9 19Z" fill="#AAAAAA"/>
</svg>
