<svg width="66" height="66" viewBox="0 0 66 66" fill="none" xmlns="http://www.w3.org/2000/svg">
<path d="M35.1998 57.4155V26.3999H30.7998V57.4155L23.666 50.2817L20.5547 53.3929L32.9998 65.8382L45.4449 53.3929L42.3336 50.2817L35.1998 57.4155Z" fill="#AAAAAA"/>
<path d="M52.8 19.8C52.8 8.8825 43.9175 0 33 0C22.0825 0 13.2 8.8825 13.2 19.8C9.69914 19.8 6.34167 21.1907 3.86619 23.6662C1.39071 26.1417 0 29.4991 0 33C0 36.5009 1.39071 39.8583 3.86619 42.3338C6.34167 44.8093 9.69914 46.2 13.2 46.2H24.2V41.8H13.2C10.8661 41.8 8.62778 40.8729 6.97746 39.2225C5.32714 37.5722 4.4 35.3339 4.4 33C4.4 30.6661 5.32714 28.4278 6.97746 26.7775C8.62778 25.1271 10.8661 24.2 13.2 24.2H17.6V19.8C17.6 15.7157 19.2225 11.7986 22.1106 8.91055C24.9986 6.02249 28.9157 4.4 33 4.4C37.0843 4.4 41.0014 6.02249 43.8894 8.91055C46.7775 11.7986 48.4 15.7157 48.4 19.8V24.2H52.8C55.1339 24.2 57.3722 25.1271 59.0225 26.7775C60.6729 28.4278 61.6 30.6661 61.6 33C61.6 35.3339 60.6729 37.5722 59.0225 39.2225C57.3722 40.8729 55.1339 41.8 52.8 41.8H41.8V46.2H52.8C56.3009 46.2 59.6583 44.8093 62.1338 42.3338C64.6093 39.8583 66 36.5009 66 33C66 29.4991 64.6093 26.1417 62.1338 23.6662C59.6583 21.1907 56.3009 19.8 52.8 19.8Z" fill="#AAAAAA"/>
</svg>
