<svg width="69" height="49" viewBox="0 0 69 49" fill="none" xmlns="http://www.w3.org/2000/svg">
<path d="M28.7136 5.61702C30.9389 3.29834 34.037 1.86035 37.4635 1.86035C42.0182 1.86035 45.9921 4.40018 48.1083 8.17061C49.9473 7.3489 51.9829 6.89185 54.1247 6.89185C62.3398 6.89185 69 13.61 69 21.8969C69 30.1848 62.3398 36.9029 54.1247 36.9029C53.1221 36.9029 52.1422 36.8027 51.1947 36.611C49.3311 39.9352 45.7798 42.1811 41.7037 42.1811C39.9974 42.1811 38.3835 41.787 36.9464 41.0862C35.0573 45.5299 30.6559 48.6457 25.5261 48.6457C20.184 48.6457 15.6312 45.2655 13.8835 40.5249C13.1198 40.6871 12.3286 40.7716 11.5167 40.7716C5.15632 40.7716 0 35.5622 0 29.135C0 24.8279 2.31671 21.0673 5.75885 19.0553C5.05017 17.4247 4.65603 15.625 4.65603 13.7329C4.65603 6.34142 10.6567 0.349625 18.0579 0.349625C22.4034 0.349625 26.2652 2.41569 28.7136 5.61702Z" fill="#00A1E0"/>
<path d="M9.99411 25.3941C9.95086 25.5072 10.0098 25.5307 10.0236 25.5504C10.1533 25.6448 10.2851 25.7126 10.4177 25.7883C11.1215 26.1618 11.7859 26.2709 12.4809 26.2709C13.8962 26.2709 14.775 25.518 14.775 24.306V24.2825C14.775 23.1619 13.7832 22.755 12.8524 22.4611L12.7315 22.4218C12.0297 22.1938 11.4242 21.9972 11.4242 21.5352V21.5107C11.4242 21.1155 11.7781 20.8246 12.3265 20.8246C12.9359 20.8246 13.6594 21.0271 14.1253 21.2846C14.1253 21.2846 14.2619 21.3731 14.312 21.2404C14.3395 21.1696 14.5754 20.5346 14.6 20.4658C14.6265 20.3911 14.5794 20.3361 14.5312 20.3066C13.9995 19.9832 13.2642 19.7621 12.5035 19.7621L12.3619 19.7631C11.0665 19.7631 10.1622 20.5454 10.1622 21.6669V21.6905C10.1622 22.873 11.1598 23.2563 12.0946 23.5237L12.245 23.5698C12.9261 23.7792 13.5129 23.9591 13.5129 24.4387V24.4623C13.5129 24.9007 13.1315 25.227 12.5162 25.227C12.2774 25.227 11.5156 25.2221 10.693 24.7022C10.5937 24.6442 10.5357 24.6019 10.459 24.5557C10.4187 24.5301 10.3175 24.4859 10.2733 24.6196L9.99411 25.3941Z" fill="white"/>
<path d="M30.7148 25.3941C30.6716 25.5072 30.7305 25.5307 30.7443 25.5504C30.874 25.6448 31.0058 25.7126 31.1384 25.7883C31.8422 26.1618 32.5067 26.2709 33.2016 26.2709C34.617 26.2709 35.4957 25.518 35.4957 24.306V24.2825C35.4957 23.1619 34.5039 22.755 33.5731 22.4611L33.4522 22.4218C32.7504 22.1938 32.1449 21.9972 32.1449 21.5352V21.5107C32.1449 21.1155 32.4988 20.8246 33.0472 20.8246C33.6567 20.8246 34.3801 21.0271 34.846 21.2846C34.846 21.2846 34.9826 21.3731 35.0327 21.2404C35.0602 21.1696 35.2961 20.5346 35.3207 20.4658C35.3473 20.3911 35.3001 20.3361 35.2519 20.3066C34.7202 19.9832 33.9849 19.7621 33.2242 19.7621L33.0826 19.7631C31.7872 19.7631 30.8829 20.5454 30.8829 21.6669V21.6905C30.8829 22.873 31.8805 23.2563 32.8153 23.5237L32.9657 23.5698C33.6468 23.7792 34.2346 23.9591 34.2346 24.4387V24.4623C34.2346 24.9007 33.8522 25.227 33.237 25.227C32.9981 25.227 32.2364 25.2221 31.4137 24.7022C31.3144 24.6442 31.2554 24.6039 31.1807 24.5557C31.1552 24.539 31.0352 24.4928 30.994 24.6196L30.7148 25.3941Z" fill="white"/>
<path d="M44.8605 23.0209C44.8605 23.7059 44.7327 24.2456 44.4811 24.6269C44.2324 25.0044 43.856 25.1882 43.3311 25.1882C42.8053 25.1882 42.4308 25.0053 42.186 24.6269C41.9383 24.2465 41.8125 23.7059 41.8125 23.0209C41.8125 22.3368 41.9383 21.7981 42.186 21.4207C42.4308 21.0472 42.8053 20.8653 43.3311 20.8653C43.856 20.8653 44.2324 21.0472 44.4821 21.4207C44.7327 21.7981 44.8605 22.3368 44.8605 23.0209ZM46.042 21.7509C45.926 21.3588 45.7451 21.0128 45.5043 20.7248C45.2635 20.4358 44.9588 20.2038 44.5971 20.0348C44.2364 19.8667 43.8098 19.7812 43.3311 19.7812C42.8515 19.7812 42.4249 19.8667 42.0642 20.0348C41.7024 20.2038 41.3977 20.4358 41.156 20.7248C40.9161 21.0138 40.7353 21.3597 40.6183 21.7509C40.5033 22.1412 40.4453 22.5677 40.4453 23.0209C40.4453 23.474 40.5033 23.9015 40.6183 24.2908C40.7353 24.682 40.9151 25.0279 41.1569 25.3169C41.3977 25.6059 41.7034 25.8369 42.0642 26.001C42.4259 26.1652 42.8515 26.2487 43.3311 26.2487C43.8098 26.2487 44.2354 26.1652 44.5971 26.001C44.9578 25.8369 45.2635 25.6059 45.5043 25.3169C45.7451 25.0289 45.926 24.6829 46.042 24.2908C46.158 23.9006 46.216 23.473 46.216 23.0209C46.216 22.5687 46.158 22.1412 46.042 21.7509Z" fill="white"/>
<path d="M55.7432 25.0044C55.7039 24.8894 55.5928 24.9327 55.5928 24.9327C55.4208 24.9985 55.238 25.0595 55.0434 25.09C54.8458 25.1204 54.6286 25.1362 54.3957 25.1362C53.8236 25.1362 53.3695 24.9661 53.0442 24.63C52.7178 24.2938 52.535 23.7503 52.537 23.015C52.539 22.3457 52.7002 21.8424 52.9901 21.4591C53.2781 21.0777 53.7165 20.8821 54.3013 20.8821C54.7888 20.8821 55.1604 20.9382 55.5496 21.061C55.5496 21.061 55.643 21.1013 55.6872 20.9794C55.7904 20.6924 55.8671 20.487 55.9772 20.1715C56.0086 20.0821 55.932 20.0437 55.9044 20.0329C55.7511 19.9729 55.3894 19.8756 55.1161 19.8344C54.8606 19.795 54.5618 19.7744 54.2296 19.7744C53.7332 19.7744 53.2909 19.8589 52.9125 20.028C52.535 20.1961 52.2146 20.428 51.961 20.717C51.7074 21.006 51.5148 21.352 51.386 21.7432C51.2582 22.1334 51.1934 22.5619 51.1934 23.015C51.1934 23.995 51.4578 24.7872 51.9797 25.3671C52.5026 25.949 53.2879 26.2449 54.3121 26.2449C54.9176 26.2449 55.5388 26.122 55.985 25.9461C55.985 25.9461 56.0705 25.9048 56.0332 25.8055L55.7432 25.0044Z" fill="white"/>
<path d="M57.8108 22.3643C57.8668 21.9839 57.972 21.6674 58.1342 21.4207C58.3789 21.0462 58.7524 20.8408 59.2773 20.8408C59.8021 20.8408 60.1491 21.0472 60.3978 21.4207C60.5629 21.6674 60.6347 21.9976 60.6632 22.3643H57.8108ZM61.7886 21.5278C61.6883 21.1494 61.4397 20.767 61.2765 20.5921C61.019 20.3149 60.7674 20.1213 60.5177 20.0131C60.1914 19.8736 59.8002 19.7812 59.3716 19.7812C58.8723 19.7812 58.4192 19.8647 58.0516 20.0377C57.683 20.2107 57.3734 20.4466 57.1306 20.7405C56.8878 21.0334 56.705 21.3823 56.589 21.7784C56.4721 22.1726 56.4131 22.6021 56.4131 23.0552C56.4131 23.5162 56.474 23.9458 56.5949 24.332C56.7168 24.7213 56.9114 25.0643 57.1748 25.3484C57.4373 25.6344 57.7754 25.8585 58.1803 26.0148C58.5824 26.1701 59.0709 26.2507 59.6321 26.2497C60.787 26.2458 61.3954 25.9882 61.6461 25.8496C61.6903 25.8251 61.7326 25.7818 61.6795 25.658L61.418 24.9257C61.3787 24.8166 61.2677 24.8569 61.2677 24.8569C60.9816 24.9631 60.5747 25.1537 59.6262 25.1518C59.006 25.1508 58.546 24.968 58.258 24.682C57.9621 24.389 57.8177 23.9585 57.7921 23.3511L61.7915 23.355C61.7915 23.355 61.8967 23.3531 61.9075 23.2508C61.9115 23.2076 62.0451 22.4291 61.7886 21.5278Z" fill="white"/>
<path d="M25.7805 22.3643C25.8375 21.9839 25.9417 21.6674 26.1039 21.4207C26.3486 21.0462 26.7221 20.8408 27.247 20.8408C27.7719 20.8408 28.1188 21.0472 28.3685 21.4207C28.5326 21.6674 28.6044 21.9976 28.6329 22.3643H25.7805ZM29.7573 21.5278C29.6571 21.1494 29.4094 20.767 29.2462 20.5921C28.9887 20.3149 28.7371 20.1213 28.4874 20.0131C28.1611 19.8736 27.7699 19.7812 27.3414 19.7812C26.843 19.7812 26.3889 19.8647 26.0213 20.0377C25.6527 20.2107 25.3431 20.4466 25.1003 20.7405C24.8576 21.0334 24.6747 21.3823 24.5588 21.7784C24.4428 22.1726 24.3828 22.6021 24.3828 23.0552C24.3828 23.5162 24.4438 23.9458 24.5647 24.332C24.6865 24.7213 24.8811 25.0643 25.1446 25.3484C25.407 25.6344 25.7451 25.8585 26.1501 26.0148C26.5521 26.1701 27.0406 26.2507 27.6018 26.2497C28.7567 26.2458 29.3652 25.9882 29.6158 25.8496C29.66 25.8251 29.7023 25.7818 29.6492 25.658L29.3888 24.9257C29.3485 24.8166 29.2374 24.8569 29.2374 24.8569C28.9514 24.9631 28.5454 25.1537 27.595 25.1518C26.9757 25.1508 26.5157 24.968 26.2277 24.682C25.9319 24.389 25.7874 23.9585 25.7618 23.3511L29.7613 23.355C29.7613 23.355 29.8664 23.3531 29.8773 23.2508C29.8812 23.2076 30.0149 22.4291 29.7573 21.5278Z" fill="white"/>
<path d="M17.1366 24.9827C16.9803 24.8579 16.9587 24.8265 16.9056 24.7459C16.827 24.623 16.7867 24.448 16.7867 24.2259C16.7867 23.874 16.9027 23.6214 17.1435 23.4514C17.1405 23.4523 17.4875 23.1516 18.3033 23.1624C18.8763 23.1703 19.3884 23.2548 19.3884 23.2548V25.0732H19.3894C19.3894 25.0732 18.8813 25.1823 18.3092 25.2167C17.4954 25.2658 17.1337 24.9818 17.1366 24.9827ZM18.7279 22.1726C18.5657 22.1608 18.3554 22.1539 18.1038 22.1539C17.7607 22.1539 17.4295 22.1972 17.1189 22.2807C16.8063 22.3643 16.5252 22.495 16.2834 22.668C16.0407 22.842 15.8451 23.0641 15.7035 23.3275C15.562 23.5909 15.4902 23.9015 15.4902 24.2495C15.4902 24.6033 15.5512 24.911 15.6731 25.1626C15.7949 25.4152 15.9709 25.6256 16.195 25.7877C16.4171 25.9499 16.6913 26.0688 17.0098 26.1406C17.3234 26.2123 17.6792 26.2487 18.0684 26.2487C18.4783 26.2487 18.8872 26.2153 19.2833 26.1475C19.6754 26.0806 20.1571 25.9833 20.2907 25.9529C20.4234 25.9214 20.5709 25.8811 20.5709 25.8811C20.6701 25.8565 20.6623 25.7504 20.6623 25.7504L20.6603 22.093C20.6603 21.2909 20.446 20.6963 20.0244 20.3277C19.6047 19.9601 18.9864 19.7743 18.1873 19.7743C17.8875 19.7743 17.4049 19.8156 17.116 19.8736C17.116 19.8736 16.2422 20.0426 15.8824 20.3238C15.8824 20.3238 15.8038 20.3729 15.847 20.483L16.1301 21.2438C16.1655 21.3421 16.2608 21.3086 16.2608 21.3086C16.2608 21.3086 16.2913 21.2968 16.3267 21.2762C17.0963 20.8575 18.0694 20.8703 18.0694 20.8703C18.5019 20.8703 18.8341 20.9568 19.0582 21.1288C19.2764 21.2959 19.3875 21.5485 19.3875 22.0812V22.2503C19.0434 22.2011 18.7279 22.1726 18.7279 22.1726Z" fill="white"/>
<path d="M50.9848 20.1122C51.0152 20.0218 50.9514 19.9786 50.9248 19.9687C50.857 19.9422 50.5169 19.8704 50.2545 19.8537C49.7522 19.8233 49.4731 19.9078 49.2234 20.0198C48.9757 20.1319 48.7005 20.3128 48.5472 20.5182V20.0316C48.5472 19.9638 48.499 19.9098 48.4322 19.9098H47.407C47.3402 19.9098 47.292 19.9638 47.292 20.0316V25.9969C47.292 26.0637 47.347 26.1188 47.4139 26.1188H48.4646C48.5314 26.1188 48.5855 26.0637 48.5855 25.9969V23.0167C48.5855 22.6167 48.6297 22.2176 48.7182 21.967C48.8047 21.7193 48.9226 21.5207 49.0681 21.3782C49.2146 21.2367 49.3807 21.1374 49.5625 21.0814C49.7483 21.0244 49.9537 21.0057 50.0992 21.0057C50.3085 21.0057 50.5385 21.0598 50.5385 21.0598C50.6152 21.0686 50.6584 21.0214 50.684 20.9516C50.7528 20.7688 50.9474 20.2213 50.9848 20.1122Z" fill="white"/>
<path d="M41.1219 17.3478C40.9941 17.3085 40.8781 17.282 40.7268 17.2534C40.5734 17.2259 40.3906 17.2122 40.1832 17.2122C39.4598 17.2122 38.8897 17.4166 38.4897 17.8196C38.0916 18.2206 37.8213 18.831 37.6857 19.634L37.6365 19.9043H36.7283C36.7283 19.9043 36.6182 19.9004 36.5946 20.0203L36.4462 20.8528C36.4354 20.9315 36.4698 20.9816 36.576 20.9816H37.4596L36.5632 25.9866C36.4934 26.3896 36.4128 26.7208 36.3234 26.9724C36.2359 27.2201 36.1504 27.4059 36.0442 27.5415C35.942 27.6713 35.8457 27.7676 35.6786 27.8236C35.541 27.8698 35.3817 27.8914 35.2078 27.8914C35.1114 27.8914 34.9827 27.8757 34.8873 27.8561C34.793 27.8374 34.7428 27.8167 34.6711 27.7863C34.6711 27.7863 34.5679 27.747 34.5266 27.8502C34.4942 27.9357 34.2583 28.5834 34.2298 28.663C34.2022 28.7426 34.2416 28.8046 34.2917 28.8232C34.4096 28.8645 34.4971 28.892 34.6573 28.9304C34.8795 28.9825 35.0672 28.9854 35.2431 28.9854C35.6107 28.9854 35.9469 28.9333 36.2251 28.8331C36.5042 28.7318 36.748 28.5559 36.9642 28.318C37.1972 28.0605 37.3436 27.7912 37.4832 27.4226C37.6218 27.0589 37.7407 26.6068 37.8351 26.0799L38.7364 20.9816H40.0535C40.0535 20.9816 40.1646 20.9855 40.1872 20.8646L40.3366 20.0331C40.3464 19.9535 40.313 19.9043 40.2058 19.9043H38.9271C38.934 19.8758 38.9919 19.4257 39.1384 19.002C39.2013 18.8222 39.3193 18.6757 39.4185 18.5755C39.5168 18.4772 39.6299 18.4074 39.7537 18.3671C39.8805 18.3258 40.025 18.3061 40.1832 18.3061C40.3031 18.3061 40.4221 18.3199 40.5115 18.3386C40.6354 18.3651 40.6835 18.3789 40.716 18.3887C40.8467 18.428 40.8644 18.3897 40.8899 18.3268L41.1956 17.4874C41.2271 17.397 41.1494 17.3586 41.1219 17.3478Z" fill="white"/>
<path d="M23.2554 25.9969C23.2554 26.0637 23.2072 26.1178 23.1404 26.1178H22.0798C22.013 26.1178 21.9658 26.0637 21.9658 25.9969V17.4613C21.9658 17.3945 22.013 17.3404 22.0798 17.3404H23.1404C23.2072 17.3404 23.2554 17.3945 23.2554 17.4613V25.9969Z" fill="white"/>
</svg>
