<svg width="33" height="49" viewBox="0 0 33 49" fill="none" xmlns="http://www.w3.org/2000/svg">
<path d="M24.4997 32.6666C29.01 32.6666 32.6663 29.0102 32.6663 24.4999C32.6663 19.9896 29.01 16.3333 24.4997 16.3333C19.9893 16.3333 16.333 19.9896 16.333 24.4999C16.333 29.0102 19.9893 32.6666 24.4997 32.6666Z" fill="#19BCFE"/>
<path fill-rule="evenodd" clip-rule="evenodd" d="M8.16667 49.0001C12.677 49.0001 16.3333 45.3437 16.3333 40.8334C16.3333 39.6022 16.3333 36.88 16.3333 32.6667C12.6645 32.6667 9.94232 32.6667 8.16667 32.6667C3.65634 32.6667 0 36.3231 0 40.8334C0 45.3437 3.65634 49.0001 8.16667 49.0001Z" fill="#09CF83"/>
<path fill-rule="evenodd" clip-rule="evenodd" d="M8.16667 32.6666H16.3333V16.3333C12.3923 16.3333 9.67011 16.3333 8.16667 16.3333C3.65634 16.3333 0 19.9896 0 24.4999C0 29.0102 3.65634 32.6666 8.16667 32.6666Z" fill="#A259FF"/>
<path fill-rule="evenodd" clip-rule="evenodd" d="M8.16667 16.3333H16.3333V0C12.3923 0 9.67011 0 8.16667 0C3.65634 0 0 3.65634 0 8.16667C0 12.677 3.65634 16.3333 8.16667 16.3333Z" fill="#F24E1E"/>
<path fill-rule="evenodd" clip-rule="evenodd" d="M24.4997 16.3333H16.333V0H24.4997C29.01 0 32.6663 3.65634 32.6663 8.16667C32.6663 12.677 29.01 16.3333 24.4997 16.3333Z" fill="#FF7262"/>
</svg>
