<svg width="56" height="47" viewBox="0 0 56 47" fill="none" xmlns="http://www.w3.org/2000/svg">
<path d="M52.9813 36.0606C50.0636 37.5789 34.9496 43.783 31.7319 45.4578C28.5142 47.1328 26.7268 47.1166 24.1848 45.9034C21.643 44.6902 5.55899 38.204 2.66163 36.8213C1.2137 36.1305 0.452148 35.5472 0.452148 34.9962V29.4792C0.452148 29.4792 21.3916 24.9283 24.772 23.7175C28.1523 22.5067 29.3251 22.4629 32.2018 23.5149C35.0788 24.5673 52.2802 27.6657 55.1233 28.7053L55.122 34.1443C55.1224 34.6897 54.4664 35.2879 52.9813 36.0606Z" fill="#912626"/>
<path d="M52.9802 30.5752C50.0627 32.0928 34.9492 38.2972 31.7315 39.9718C28.514 41.647 26.7265 41.6305 24.1847 40.4174C21.6427 39.2051 5.55937 32.7177 2.66222 31.3359C-0.234919 29.9533 -0.29557 29.0017 2.55032 27.8892C5.39621 26.7762 21.3914 20.5111 24.7722 19.3003C28.1524 18.0899 29.3251 18.0457 32.2017 19.0981C35.0786 20.1501 50.102 26.1202 52.9447 27.1596C55.7885 28.2003 55.8976 29.0572 52.9802 30.5752Z" fill="#C6302B"/>
<path d="M52.9813 27.1327C50.0636 28.6512 34.9496 34.8552 31.7319 36.5306C28.5142 38.2049 26.7268 38.1887 24.1848 36.9755C21.6428 35.763 5.55899 29.2761 2.66163 27.8935C1.2137 27.2027 0.452148 26.6202 0.452148 26.069V20.5514C0.452148 20.5514 21.3916 16.0006 24.772 14.7898C28.1523 13.579 29.3251 13.5351 32.2018 14.5873C35.0791 15.6395 52.2804 18.7372 55.1233 19.777L55.122 25.2166C55.1224 25.7618 54.4664 26.3601 52.9813 27.1327Z" fill="#912626"/>
<path d="M52.9802 21.6474C50.0627 23.1654 34.9492 29.3694 31.7315 31.0446C28.514 32.7191 26.7265 32.7027 24.1847 31.4895C21.6427 30.2772 5.55937 23.7901 2.66222 22.4081C-0.234919 21.0259 -0.29557 20.0741 2.55032 18.9611C5.39621 17.8488 21.3916 11.5832 24.7722 10.3726C28.1524 9.16204 29.3251 9.11811 32.2017 10.1703C35.0786 11.2223 50.102 17.1919 52.9447 18.2317C55.7885 19.2722 55.8976 20.1293 52.9802 21.6474Z" fill="#C6302B"/>
<path d="M52.9813 17.8759C50.0636 19.394 34.9496 25.5984 31.7319 27.2738C28.5142 28.9483 26.7268 28.9319 24.1848 27.7188C21.6428 26.5062 5.55899 20.0191 2.66163 18.6371C1.2137 17.9457 0.452148 17.363 0.452148 16.8125V11.2946C0.452148 11.2946 21.3916 6.74407 24.772 5.53347C28.1523 4.32244 29.3251 4.27894 32.2018 5.33092C35.0791 6.3831 52.2804 9.48082 55.1233 10.5206L55.122 15.96C55.1224 16.5048 54.4664 17.1031 52.9813 17.8759Z" fill="#912626"/>
<path d="M52.9801 12.3908C50.0626 13.9088 34.9491 20.1132 31.7314 21.7878C28.5139 23.4623 26.7264 23.4459 24.1846 22.2334C21.6428 21.0202 5.55926 14.5335 2.66233 13.1513C-0.235026 11.7693 -0.295463 10.8173 2.55021 9.70454C5.3961 8.59201 21.3915 2.32728 24.7721 1.11625C28.1523 -0.094565 29.325 -0.13806 32.2016 0.914129C35.0785 1.96632 50.1019 7.93597 52.9446 8.97579C55.7884 10.0154 55.8975 10.8727 52.9801 12.3908Z" fill="#C6302B"/>
<path d="M34.4687 7.02382L29.7683 7.511L28.7161 10.0388L27.0166 7.21805L21.589 6.73108L25.6389 5.27294L24.4237 3.03467L28.2155 4.51519L31.79 3.34681L30.8239 5.66119L34.4687 7.02382ZM28.4354 19.2872L19.6631 15.6547L32.2332 13.7284L28.4354 19.2872ZM16.2733 8.42887C19.9838 8.42887 22.9918 9.59299 22.9918 11.0287C22.9918 12.4649 19.9838 13.6288 16.2733 13.6288C12.5627 13.6288 9.55469 12.4647 9.55469 11.0287C9.55469 9.59299 12.5627 8.42887 16.2733 8.42887Z" fill="white"/>
<path d="M40.0234 7.71408L47.463 10.6491L40.0298 13.5814L40.0234 7.71408Z" fill="#621B1C"/>
<path d="M31.793 10.9662L40.0235 7.71582L40.0299 13.5831L39.2229 13.8983L31.793 10.9662Z" fill="#9A2928"/>
</svg>
