<svg width="65" height="65" viewBox="0 0 65 65" fill="none" xmlns="http://www.w3.org/2000/svg">
<path d="M59.95 22.5701L59.9501 22.5701C59.8473 22.2396 59.7381 21.911 59.6225 21.5843C59.2168 20.4379 58.7351 19.3214 58.177 18.2344L58.1752 18.231C57.9342 17.7592 57.6784 17.2934 57.4078 16.8334C56.1298 14.6655 54.5305 12.6144 52.5996 10.6813C48.0104 6.09201 42.7218 3.35085 36.697 2.39073L59.95 22.5701ZM59.95 22.5701L59.9541 22.5829M59.95 22.5701L59.9541 22.5829M59.9541 22.5829C60.0228 22.7988 60.0884 23.015 60.1509 23.2315M59.9541 22.5829L60.1509 23.2315M33.6564 63.224C33.8128 63.215 33.9681 63.205 34.1223 63.1938C35.4652 63.0977 36.7767 62.9257 38.057 62.6777C38.5844 62.5749 39.1072 62.4598 39.6256 62.3325M33.6564 63.224L62.0744 22.6834C62.1593 22.985 62.2408 23.2889 62.319 23.595C62.9424 26.0841 63.262 28.6984 63.2776 31.4377V31.5047V31.6388C63.2776 32.0544 63.2709 32.4678 63.2575 32.8789C63.1324 36.5388 62.4498 39.9686 61.2097 43.1682M33.6564 63.224L33.5423 61.2272C33.5434 61.2272 33.5446 61.2271 33.5457 61.227M33.6564 63.224L33.5489 61.2269C33.5478 61.2269 33.5467 61.227 33.5457 61.227M39.6256 62.3325C45.0149 60.9896 49.811 58.2167 54.0139 54.0139M39.6256 62.3325L39.1484 60.3902C39.1474 60.3904 39.1465 60.3907 39.1455 60.3909M39.6256 62.3325L39.142 60.3918C39.1432 60.3915 39.1444 60.3912 39.1455 60.3909M54.0139 54.0139C57.2716 50.7539 59.6702 47.1387 61.2097 43.1682M54.0139 54.0139L52.5996 52.5996M54.0139 54.0139L52.5992 52.6001C52.5993 52.6 52.5995 52.5998 52.5996 52.5996M61.2097 43.1682L59.3449 42.4452M61.2097 43.1682L59.3448 42.4454C59.3449 42.4453 59.3449 42.4453 59.3449 42.4452M60.1509 23.2315C60.2304 23.514 60.3068 23.7988 60.3802 24.0857C60.9609 26.4063 61.2624 28.8571 61.2776 31.4432V31.4433V31.4435V31.4436V31.4437V31.4439V31.444V31.4441V31.4442V31.4444V31.4445V31.4446V31.4448V31.4449V31.445V31.4452V31.4453V31.4454V31.4456V31.4457V31.4458V31.4459V31.4461V31.4462V31.4463V31.4465V31.4466V31.4467V31.4469V31.447V31.4471V31.4473V31.4474V31.4475V31.4477V31.4478V31.4479V31.448V31.4482V31.4483V31.4484V31.4486V31.4487V31.4488V31.449V31.4491V31.4492V31.4494V31.4495V31.4496V31.4497V31.4499V31.45V31.4501V31.4503V31.4504V31.4505V31.4507V31.4508V31.4509V31.4511V31.4512V31.4513V31.4514V31.4516V31.4517V31.4518V31.452V31.4521V31.4522V31.4524V31.4525V31.4526V31.4528V31.4529V31.453V31.4531V31.4533V31.4534V31.4535V31.4537V31.4538V31.4539V31.4541V31.4542V31.4543V31.4545V31.4546V31.4547V31.4549V31.455V31.4551V31.4552V31.4554V31.4555V31.4556V31.4558V31.4559V31.456V31.4562V31.4563V31.4564V31.4566V31.4567V31.4568V31.4569V31.4571V31.4572V31.4573V31.4575V31.4576V31.4577V31.4579V31.458V31.4581V31.4583V31.4584V31.4585V31.4586V31.4588V31.4589V31.459V31.4592V31.4593V31.4594V31.4596V31.4597V31.4598V31.46V31.4601V31.4602V31.4604V31.4605V31.4606V31.4607V31.4609V31.461V31.4611V31.4613V31.4614V31.4615V31.4617V31.4618V31.4619V31.4621V31.4622V31.4623V31.4624V31.4626V31.4627V31.4628V31.463V31.4631V31.4632V31.4634V31.4635V31.4636V31.4638V31.4639V31.464V31.4641V31.4643V31.4644V31.4645V31.4647V31.4648V31.4649V31.4651V31.4652V31.4653V31.4655V31.4656V31.4657V31.4658V31.466V31.4661V31.4662V31.4664V31.4665V31.4666V31.4668V31.4669V31.467V31.4672V31.4673V31.4674V31.4676V31.4677V31.4678V31.4679V31.4681V31.4682V31.4683V31.4685V31.4686V31.4687V31.4689V31.469V31.4691V31.4693V31.4694V31.4695V31.4696V31.4698V31.4699V31.47V31.4702V31.4703V31.4704V31.4706V31.4707V31.4708V31.471V31.4711V31.4712V31.4713V31.4715V31.4716V31.4717V31.4719V31.472V31.4721V31.4723V31.4724V31.4725V31.4727V31.4728V31.4729V31.473V31.4732V31.4733V31.4734V31.4736V31.4737V31.4738V31.474V31.4741V31.4742V31.4744V31.4745V31.4746V31.4748V31.4749V31.475V31.4751V31.4753V31.4754V31.4755V31.4757V31.4758V31.4759V31.4761V31.4762V31.4763V31.4765V31.4766V31.4767V31.4768V31.477V31.4771V31.4772V31.4774V31.4775V31.4776V31.4778V31.4779V31.478V31.4782V31.4783V31.4784V31.4785V31.4787V31.4788V31.4789V31.4791V31.4792V31.4793V31.4795V31.4796V31.4797V31.4799V31.48V31.4801V31.4803V31.4804V31.4805V31.4806V31.4808V31.4809V31.481V31.4812V31.4813V31.4814V31.4816V31.4817V31.4818V31.482V31.4821V31.4822V31.4823V31.4825V31.4826V31.4827V31.4829V31.483V31.4831V31.4833V31.4834V31.4835V31.4837V31.4838V31.4839V31.484V31.4842V31.4843V31.4844V31.4846V31.4847V31.4848V31.485V31.4851V31.4852V31.4854V31.4855V31.4856V31.4857V31.4859V31.486V31.4861V31.4863V31.4864V31.4865V31.4867V31.4868V31.4869V31.4871V31.4872V31.4873V31.4875V31.4876V31.4877V31.4878V31.488V31.4881V31.4882V31.4884V31.4885V31.4886V31.4888V31.4889V31.489V31.4892V31.4893V31.4894V31.4895V31.4897V31.4898V31.4899V31.4901V31.4902V31.4903V31.4905V31.4906V31.4907V31.4909V31.491V31.4911V31.4912V31.4914V31.4915V31.4916V31.4918V31.4919V31.492V31.4922V31.4923V31.4924V31.4926V31.4927V31.4928V31.493V31.4931V31.4932V31.4933V31.4935V31.4936V31.4937V31.4939V31.494V31.4941V31.4943V31.4944V31.4945V31.4947V31.4948V31.4949V31.495V31.4952V31.4953V31.4954V31.4956V31.4957V31.4958V31.496V31.4961V31.4962V31.4964V31.4965V31.4966V31.4967V31.4969V31.497V31.4971V31.4973V31.4974V31.4975V31.4977V31.4978V31.4979V31.4981V31.4982V31.4983V31.4984V31.4986V31.4987V31.4988V31.499V31.4991V31.4992V31.4994V31.4995V31.4996V31.4998V31.4999V31.5V31.5002V31.5003V31.5004V31.5005V31.5007V31.5008V31.5009V31.5011V31.5012V31.5013V31.5015V31.5016V31.5017V31.5019V31.502V31.5021V31.5022V31.5024V31.5025V31.5026V31.5028V31.5029V31.503V31.5032V31.5033V31.5034V31.5036V31.5037V31.5038V31.5039V31.5041V31.5042V31.5043V31.5045V31.5046V31.5047V31.505V31.5053V31.5055V31.5058V31.506V31.5063V31.5066V31.5068V31.5071V31.5074V31.5076V31.5079V31.5081V31.5084V31.5087V31.5089V31.5092V31.5094V31.5097V31.51V31.5102V31.5105V31.5108V31.511V31.5113V31.5115V31.5118V31.5121V31.5123V31.5126V31.5128V31.5131V31.5134V31.5136V31.5139V31.5142V31.5144V31.5147V31.5149V31.5152V31.5155V31.5157V31.516V31.5163V31.5165V31.5168V31.517V31.5173V31.5176V31.5178V31.5181V31.5183V31.5186V31.5189V31.5191V31.5194V31.5197V31.5199V31.5202V31.5204V31.5207V31.521V31.5212V31.5215V31.5218V31.522V31.5223V31.5225V31.5228V31.5231V31.5233V31.5236V31.5238V31.5241V31.5244V31.5246V31.5249V31.5252V31.5254V31.5257V31.5259V31.5262V31.5265V31.5267V31.527V31.5273V31.5275V31.5278V31.528V31.5283V31.5286V31.5288V31.5291V31.5293V31.5296V31.5299V31.5301V31.5304V31.5307V31.5309V31.5312V31.5314V31.5317V31.532V31.5322V31.5325V31.5327V31.533V31.5333V31.5335V31.5338V31.5341V31.5343V31.5346V31.5348V31.5351V31.5354V31.5356V31.5359V31.5362V31.5364V31.5367V31.5369V31.5372V31.5375V31.5377V31.538V31.5382V31.5385V31.5388V31.539V31.5393V31.5396V31.5398V31.5401V31.5403V31.5406V31.5409V31.5411V31.5414V31.5417V31.5419V31.5422V31.5424V31.5427V31.543V31.5432V31.5435V31.5437V31.544V31.5443V31.5445V31.5448V31.5451V31.5453V31.5456V31.5458V31.5461V31.5464V31.5466V31.5469V31.5471V31.5474V31.5477V31.5479V31.5482V31.5485V31.5487V31.549V31.5492V31.5495V31.5498V31.55V31.5503V31.5506V31.5508V31.5511V31.5513V31.5516V31.5519V31.5521V31.5524V31.5526V31.5529V31.5532V31.5534V31.5537V31.554V31.5542V31.5545V31.5547V31.555V31.5553V31.5555V31.5558V31.5561V31.5563V31.5566V31.5568V31.5571V31.5574V31.5576V31.5579V31.5581V31.5584V31.5587V31.5589V31.5592V31.5595V31.5597V31.56V31.5602V31.5605V31.5608V31.561V31.5613V31.5616V31.5618V31.5621V31.5623V31.5626V31.5629V31.5631V31.5634V31.5636V31.5639V31.5642V31.5644V31.5647V31.565V31.5652V31.5655V31.5657V31.566V31.5663V31.5665V31.5668V31.5671V31.5673V31.5676V31.5678V31.5681V31.5684V31.5686V31.5689V31.5691V31.5694V31.5697V31.5699V31.5702V31.5705V31.5707V31.571V31.5712V31.5715V31.5718V31.572V31.5723V31.5725V31.5728V31.5731V31.5733V31.5736V31.5739V31.5741V31.5744V31.5746V31.5749V31.5752V31.5754V31.5757V31.576V31.5762V31.5765V31.5767V31.577V31.5773V31.5775V31.5778V31.578V31.5783V31.5786V31.5788V31.5791V31.5794V31.5796V31.5799V31.5801V31.5804V31.5807V31.5809V31.5812V31.5815V31.5817V31.582V31.5822V31.5825V31.5828V31.583V31.5833V31.5835V31.5838V31.5841V31.5843V31.5846V31.5849V31.5851V31.5854V31.5856V31.5859V31.5862V31.5864V31.5867V31.587V31.5872V31.5875V31.5877V31.588V31.5883V31.5885V31.5888V31.589V31.5893V31.5896V31.5898V31.5901V31.5904V31.5906V31.5909V31.5911V31.5914V31.5917V31.5919V31.5922V31.5924V31.5927V31.593V31.5932V31.5935V31.5938V31.594V31.5943V31.5945V31.5948V31.5951V31.5953V31.5956V31.5959V31.5961V31.5964V31.5966V31.5969V31.5972V31.5974V31.5977V31.5979V31.5982V31.5985V31.5987V31.599V31.5993V31.5995V31.5998V31.6V31.6003V31.6006V31.6008V31.6011V31.6014V31.6016V31.6019V31.6021V31.6024V31.6027V31.6029V31.6032V31.6034V31.6037V31.604V31.6042V31.6045V31.6048V31.605V31.6053V31.6055V31.6058V31.6061V31.6063V31.6066V31.6069V31.6071V31.6074V31.6076V31.6079V31.6082V31.6084V31.6087V31.6089V31.6092V31.6095V31.6097V31.61V31.6103V31.6105V31.6108V31.611V31.6113V31.6116V31.6118V31.6121V31.6124V31.6126V31.6129V31.6131V31.6134V31.6137V31.6139V31.6142V31.6144V31.6147V31.615V31.6152V31.6155V31.6158V31.616V31.6163V31.6165V31.6168V31.6171V31.6173V31.6176V31.6178V31.6181V31.6184V31.6186V31.6189V31.6192V31.6194V31.6197V31.6199V31.6202V31.6205V31.6207V31.621V31.6213V31.6215V31.6218V31.622V31.6223V31.6226V31.6228V31.6231V31.6233V31.6236V31.6239V31.6241V31.6244V31.6247V31.6249V31.6252V31.6254V31.6257V31.626V31.6262V31.6265V31.6268V31.627V31.6273V31.6275V31.6278V31.6281V31.6283V31.6286V31.6288V31.6291V31.6294V31.6296V31.6299V31.6302V31.6304V31.6307V31.6309V31.6312V31.6315V31.6317V31.632V31.6322V31.6325V31.6328V31.633V31.6333V31.6336V31.6338V31.6341V31.6343V31.6346V31.6349V31.6351V31.6354V31.6357V31.6359V31.6362V31.6364V31.6367V31.637V31.6372V31.6375V31.6377V31.638V31.6383V31.6385V31.6388C61.2776 32.032 61.2713 32.4227 61.2586 32.811M60.1509 23.2315L61.2586 32.811M61.2586 32.811C61.2586 32.8108 61.2586 32.8107 61.2586 32.8105L63.2574 32.8789L61.2585 32.8137C61.2586 32.8128 61.2586 32.8119 61.2586 32.811ZM59.3449 42.4452C57.914 46.1358 55.6771 49.5199 52.5996 52.5996M59.3449 42.4452L10.6813 52.5996M52.5996 52.5996C48.6357 56.5636 44.1564 59.1417 39.1455 60.3909M39.1455 60.3909C38.66 60.5102 38.1699 60.618 37.6754 60.7144M37.6754 60.7144C36.4765 60.9466 35.2448 61.1084 33.9796 61.1989L33.9777 61.199C33.8349 61.2094 33.6909 61.2187 33.5457 61.227M37.6754 60.7144C37.6751 60.7145 37.6748 60.7145 37.6744 60.7146L38.057 62.6773L37.6767 60.7142C37.6763 60.7142 37.6759 60.7143 37.6754 60.7144ZM33.5457 61.227C32.9198 61.2607 32.2842 61.2776 31.6388 61.2776H31.6384H31.638H31.6376H31.6372H31.6368H31.6364H31.636H31.6357H31.6353H31.6349H31.6345H31.6341H31.6337H31.6333H31.6329H31.6325H31.6321H31.6317H31.6313H31.6309H31.6305H31.6302H31.6298H31.6294H31.629H31.6286H31.6282H31.6278H31.6274H31.627H31.6266H31.6262H31.6258H31.6254H31.625H31.6247H31.6243H31.6239H31.6235H31.6231H31.6227H31.6223H31.6219H31.6215H31.6211H31.6207H31.6203H31.6199H31.6196H31.6192H31.6188H31.6184H31.618H31.6176H31.6172H31.6168H31.6164H31.616H31.6156H31.6152H31.6148H31.6144H31.6141H31.6137H31.6133H31.6129H31.6125H31.6121H31.6117H31.6113H31.6109H31.6105H31.6101H31.6097H31.6093H31.6089H31.6086H31.6082H31.6078H31.6074H31.607H31.6066H31.6062H31.6058H31.6054H31.605H31.6046H31.6042H31.6038H31.6034H31.6031H31.6027H31.6023H31.6019H31.6015H31.6011H31.6007H31.6003H31.5999H31.5995H31.5991H31.5987H31.5983H31.5979H31.5976H31.5972H31.5968H31.5964H31.596H31.5956H31.5952H31.5948H31.5944H31.594H31.5936H31.5932H31.5928H31.5924H31.5921H31.5917H31.5913H31.5909H31.5905H31.5901H31.5897H31.5893H31.5889H31.5885H31.5881H31.5877H31.5873H31.587H31.5866H31.5862H31.5858H31.5854H31.585H31.5846H31.5842H31.5838H31.5834H31.583H31.5826H31.5822H31.5818H31.5815H31.5811H31.5807H31.5803H31.5799H31.5795H31.5791H31.5787H31.5783H31.5779H31.5775H31.5771H31.5767H31.5763H31.576H31.5756H31.5752H31.5748H31.5744H31.574H31.5736H31.5732H31.5728H31.5724H31.572H31.5716H31.5712H31.5708H31.5705H31.5701H31.5697H31.5693H31.5689H31.5685H31.5681H31.5677H31.5673H31.5669H31.5665H31.5661H31.5657H31.5653H31.565H31.5646H31.5642H31.5638H31.5634H31.563H31.5626H31.5622H31.5618H31.5614H31.561H31.5606H31.5602H31.5599H31.5595H31.5591H31.5587H31.5583H31.5579H31.5575H31.5571H31.5567H31.5563H31.5559H31.5555H31.5551H31.5547H31.5544H31.554H31.5536H31.5532H31.5528H31.5524H31.552H31.5516H31.5512H31.5508H31.5504H31.55H31.5496H31.5492H31.5489H31.5485H31.5481H31.5477H31.5473H31.5469H31.5465H31.5461H31.5457H31.5453H31.5449H31.5445H31.5441H31.5437H31.5434H31.543H31.5426H31.5422H31.5418H31.5414H31.541H31.5406H31.5402H31.5398H31.5394H31.539H31.5386H31.5382H31.5379H31.5375H31.5371H31.5367H31.5363H31.5359H31.5355H31.5351H31.5347H31.5343H31.5339H31.5335H31.5331H31.5327H31.5324H31.532H31.5316H31.5312H31.5308H31.5304H31.53H31.5296H31.5292H31.5288H31.5284H31.528H31.5276H31.5273H31.5269H31.5265H31.5261H31.5257H31.5253H31.5249H31.5245H31.5241H31.5237H31.5233H31.5229H31.5225H31.5221H31.5218H31.5214H31.521H31.5206H31.5202H31.5198H31.5194H31.519H31.5186H31.5182H31.5178H31.5174H31.517H31.5166H31.5163H31.5159H31.5155H31.5151H31.5147H31.5143H31.5139H31.5135H31.5131H31.5127H31.5123H31.5119H31.5115H31.5111H31.5108H31.5104H31.51H31.5096H31.5092H31.5088H31.5084H31.508H31.5076H31.5072H31.5068H31.5064H31.506H31.5056H31.5053H31.5049H31.5045H31.5041H31.5037H31.5033H31.5029H31.5025H31.5021H31.5017H31.5013H31.5009H31.5005H31.5002H31.4998H31.4994H31.499H31.4986H31.4982H31.4978H31.4974H31.497H31.4966H31.4962H31.4958H31.4954H31.495H31.4947H31.4943H31.4939H31.4935H31.4931H31.4927H31.4923H31.4919H31.4915H31.4911H31.4907H31.4903H31.4899H31.4895H31.4892H31.4888H31.4884H31.488H31.4876H31.4872H31.4868H31.4864H31.486H31.4856H31.4852H31.4848H31.4844H31.484H31.4837H31.4833H31.4829H31.4825H31.4821H31.4817H31.4813H31.4809H31.4805H31.4801H31.4797H31.4793H31.4789H31.4785H31.4782H31.4778H31.4774H31.477H31.4766H31.4762H31.4758H31.4754H31.475H31.4746H31.4742H31.4738H31.4734H31.4731H31.4727H31.4723H31.4719H31.4715H31.4711H31.4707H31.4703H31.4699H31.4695H31.4691H31.4687H31.4683H31.4679H31.4676H31.4672H31.4668H31.4664H31.466H31.4656H31.4652H31.4648H31.4644H31.464H31.4636H31.4632H31.4628H31.4624H31.4621H31.4617H31.4613H31.4609H31.4605H31.4601H31.4597H31.4593H31.4589H31.4585H31.4581H31.4577H31.4573H31.4569H31.4566H31.4562H31.4558H31.4554H31.455H31.4546H31.4542H31.4538H31.4534H31.453H31.4526H31.4522H31.4518H31.4514H31.4511H31.4507H31.4503H31.4499H31.4495H31.4491H31.4487H31.4483H31.4479H31.4475H31.4471H31.4467H31.4463H31.446C30.9239 61.2733 30.4066 61.2584 29.8941 61.2331L29.8448 61.2307H29.8215C27.3051 61.0956 24.9219 60.6776 22.6663 59.9822C18.2507 58.6202 14.2583 56.1752 10.6813 52.5996M10.6813 52.5996C10.6812 52.5996 10.6811 52.5995 10.681 52.5994L9.2677 54.0132L10.6813 52.5996Z" stroke="#AAAAAA" stroke-width="4"/>
<path d="M63.1968 34.0486L46.7574 17.6091L31.1424 22.5862L33.3444 24.7882L22.6161 31.4746L24.6505 33.509L13.1445 39.5418L36.5351 62.9324C37.0477 62.8598 37.555 62.7749 38.0567 62.6777C38.584 62.5749 39.1069 62.4598 39.6253 62.3324C45.0146 60.9896 49.8107 58.2167 54.0135 54.0139C57.2713 50.7539 59.6699 47.1387 61.2094 43.1682C62.3163 40.312 62.9788 37.2721 63.1968 34.0486Z" fill="black" fill-opacity="0.098039"/>
<path d="M37.1617 24.939C36.974 24.8585 36.7774 24.8183 36.5718 24.8183H19.0498C19.0521 25.8908 19.2599 26.9164 19.6732 27.895C20.0732 28.8402 20.6385 29.677 21.3691 30.4054C22.0975 31.136 22.9343 31.7013 23.8794 32.1013C24.8581 32.5146 25.8826 32.7224 26.9528 32.7246H30.1837V35.8483C30.1837 36.9208 30.3915 37.9464 30.8071 38.925C31.2071 39.8702 31.7724 40.707 32.503 41.4354C33.2314 42.1638 34.0693 42.728 35.0167 43.1279C35.9931 43.5413 37.0176 43.748 38.0901 43.748V26.3399C38.0901 26.1344 38.0499 25.9366 37.9694 25.7467C37.8935 25.5657 37.7851 25.4048 37.6443 25.2641C37.5058 25.1233 37.3449 25.0149 37.1617 24.939ZM10.376 33.5424C10.376 34.6149 10.5838 35.6416 10.9994 36.6225C11.3993 37.5677 11.9646 38.4056 12.6953 39.1362C13.4237 39.8668 14.2616 40.4321 15.2089 40.8321C16.1876 41.2454 17.2132 41.4521 18.2857 41.4521H21.5233V44.5691C21.5233 45.6394 21.73 46.6638 22.1433 47.6425C22.5433 48.5876 23.1075 49.4244 23.8359 50.1528C24.5643 50.8812 25.4011 51.4465 26.3462 51.8487C27.3226 52.2621 28.346 52.4698 29.4162 52.4721V35.064C29.4162 34.8585 29.376 34.6619 29.2956 34.4742C29.2196 34.2909 29.1112 34.129 28.9705 33.9882C28.8319 33.8474 28.6711 33.7391 28.4878 33.6631C28.3002 33.5826 28.1035 33.5424 27.898 33.5424H10.376ZM46.6399 17.0192C46.564 16.836 46.4556 16.674 46.3148 16.5332C46.1741 16.3947 46.0132 16.2863 45.8322 16.2081C45.6445 16.1299 45.4468 16.0908 45.239 16.0908H27.7203C27.7203 17.1633 27.927 18.1889 28.3404 19.1676C28.7403 20.1149 29.3056 20.9528 30.0363 21.6812C30.7669 22.4119 31.6048 22.9772 32.5499 23.3771C33.5286 23.7905 34.5553 23.9972 35.63 23.9972H38.8576V27.1141C38.8576 28.1866 39.0643 29.2122 39.4776 30.1909C39.8798 31.136 40.4451 31.9728 41.1735 32.7012C41.9019 33.4318 42.7387 33.9971 43.6839 34.3971C44.6625 34.8104 45.6881 35.0182 46.7606 35.0205V17.6091C46.7606 17.4035 46.7204 17.2069 46.6399 17.0192Z" fill="#AAAAAA"/>
</svg>
