<svg width="62" height="65" viewBox="0 0 62 65" fill="none" xmlns="http://www.w3.org/2000/svg">
<path d="M3 11.8496V29.5496C3 29.5496 3 38.3996 23.65 38.3996C25.3979 38.3996 26.998 38.3362 28.4623 38.2202" stroke="#AAAAAA" stroke-width="4.425" stroke-linecap="round" stroke-linejoin="round"/>
<path d="M44.2998 11.8496V29.5496" stroke="#AAAAAA" stroke-width="4.425" stroke-linecap="round" stroke-linejoin="round"/>
<path d="M23.65 3C44.3 3 44.3 11.85 44.3 11.85C44.3 11.85 44.3 20.7 23.65 20.7C3 20.7 3 11.85 3 11.85C3 11.85 3 3 23.65 3Z" stroke="#AAAAAA" stroke-width="4.425" stroke-linecap="round" stroke-linejoin="round"/>
<path d="M23.65 56.1003C3 56.1003 3 47.2503 3 47.2503V29.5503" stroke="#AAAAAA" stroke-width="4.425" stroke-linecap="round" stroke-linejoin="round"/>
<path d="M58.0656 46.2667C56.2401 41.6361 52.0715 38.3999 47.2205 38.3999C42.0335 38.3999 37.6259 42.1007 36.0303 47.2499" stroke="#AAAAAA" stroke-width="4.425" stroke-linecap="round" stroke-linejoin="round"/>
<path d="M53.1357 46.2691H58.0661C58.6098 46.2691 59.0505 45.8284 59.0505 45.2847V39.7136" stroke="#AAAAAA" stroke-width="4.425" stroke-linecap="round" stroke-linejoin="round"/>
<path d="M36.4346 54.1329C38.26 58.7635 42.4287 61.9997 47.2797 61.9997C52.4666 61.9997 56.8742 58.2989 58.4699 53.1497" stroke="#AAAAAA" stroke-width="4.425" stroke-linecap="round" stroke-linejoin="round"/>
<path d="M41.364 54.1345H36.4336C35.8899 54.1345 35.4492 54.5753 35.4492 55.1189V60.69" stroke="#AAAAAA" stroke-width="4.425" stroke-linecap="round" stroke-linejoin="round"/>
</svg>
