<svg width="50" height="50" viewBox="0 0 50 50" fill="none" xmlns="http://www.w3.org/2000/svg">
<path d="M10.95 0H39.05C45.0975 0 50 4.90247 50 10.95V39.05C50 45.0975 45.0975 50 39.05 50H10.95C4.90247 50 0 45.0975 0 39.05V10.95C0 4.90247 4.90247 0 10.95 0Z" fill="url(#paint0_linear_908_2650)"/>
<path d="M16.0234 36.2911L16.0281 36.2925L14.3186 39.2535C13.6946 40.3343 12.3125 40.7046 11.2317 40.0806C10.1509 39.4567 9.78057 38.0745 10.4046 36.9937L11.6639 34.8125L11.7847 34.6032C12.0006 34.2929 12.5332 33.7576 13.5987 33.8582C13.5987 33.8582 16.1058 34.1303 16.2872 35.4334C16.2873 35.4334 16.312 35.8622 16.0234 36.2911ZM40.2702 28.7284H34.9393C34.5763 28.7041 34.4177 28.5744 34.3555 28.4991L34.3515 28.4922L28.6449 18.6082L28.6376 18.6131L28.2953 18.1224C27.7344 17.2647 26.8438 19.4584 26.8438 19.4584C25.7804 21.9029 26.9947 24.6821 27.4181 25.5221L35.3441 39.2504C35.9681 40.3312 37.3502 40.7016 38.431 40.0775C39.5118 39.4536 39.8821 38.0715 39.2581 36.9907L37.2761 33.5578C37.2378 33.4747 37.1709 33.2488 37.5774 33.2479H40.2702C41.5182 33.2479 42.5299 32.2361 42.5299 30.9881C42.5299 29.7401 41.5182 28.7284 40.2702 28.7284ZM29.9159 31.8004C29.9159 31.8004 30.2004 33.2478 29.0994 33.2478H27.9984L9.39257 33.2479C8.14455 33.2479 7.13281 32.2361 7.13281 30.9881C7.13281 29.7401 8.14455 28.7284 9.39257 28.7284H14.459C15.2769 28.681 15.4709 28.2088 15.4709 28.2088L15.4753 28.2111L22.0887 16.7564L22.0867 16.756C22.2073 16.5347 22.1069 16.3256 22.0894 16.2925L19.9054 12.5096C19.2813 11.4288 19.6517 10.0468 20.7325 9.42277C21.8133 8.79873 23.1953 9.16907 23.8194 10.2499L24.8323 12.0044L25.8434 10.253C26.4674 9.17218 27.8495 8.80185 28.9303 9.42588C30.0111 10.0499 30.3814 11.432 29.7574 12.5128L20.5547 28.4522C20.5145 28.5492 20.5022 28.7015 20.8016 28.7284H26.3024L26.3036 28.782C26.3036 28.782 29.4829 28.8314 29.9159 31.8004Z" fill="white"/>
<defs>
<linearGradient id="paint0_linear_908_2650" x1="6400" y1="0" x2="6400" y2="12800" gradientUnits="userSpaceOnUse">
<stop stop-color="#17C9FB"/>
<stop offset="1" stop-color="#1A74E8"/>
</linearGradient>
</defs>
</svg>
