<svg width="43" height="50" viewBox="0 0 43 50" fill="none" xmlns="http://www.w3.org/2000/svg">
<path d="M5.375 31.5638C5.375 33.0473 4.171 34.2513 2.6875 34.2513C1.204 34.2513 0 33.0473 0 31.5638V19.4701C0 17.9866 1.204 16.7826 2.6875 16.7826C4.171 16.7826 5.375 17.9866 5.375 19.4701V31.5638Z" fill="#7CB342"/>
<path d="M43 31.5638C43 33.0473 41.796 34.2513 40.3125 34.2513C38.829 34.2513 37.625 33.0473 37.625 31.5638V19.4701C37.625 17.9866 38.829 16.7826 40.3125 16.7826C41.796 16.7826 43 17.9866 43 19.4701V31.5638Z" fill="#7CB342"/>
<path d="M18.8125 46.3438C18.8125 47.8272 17.6085 49.0312 16.125 49.0312C14.6415 49.0312 13.4375 47.8272 13.4375 46.3438V34.25C13.4375 32.7665 14.6415 31.5625 16.125 31.5625C17.6085 31.5625 18.8125 32.7665 18.8125 34.25V46.3438Z" fill="#7CB342"/>
<path d="M29.5625 46.3438C29.5625 47.8272 28.3585 49.0312 26.875 49.0312C25.3915 49.0312 24.1875 47.8272 24.1875 46.3438V34.25C24.1875 32.7665 25.3915 31.5625 26.875 31.5625C28.3585 31.5625 29.5625 32.7665 29.5625 34.25V46.3438Z" fill="#7CB342"/>
<path d="M8.0625 16.7826V36.9375C8.0625 38.421 9.2665 39.625 10.75 39.625H32.25C33.7335 39.625 34.9375 38.421 34.9375 36.9375V16.7826H8.0625Z" fill="#7CB342"/>
<path d="M21.5 3.34375C13.4375 3.34375 8.52609 8.24172 8.0625 14.0938H34.9375C34.4726 8.24172 29.5625 3.34375 21.5 3.34375ZM16.125 10.8661C15.3833 10.8661 14.7812 10.2641 14.7812 9.52231C14.7812 8.78056 15.3833 8.17856 16.125 8.17856C16.8667 8.17856 17.4688 8.78056 17.4688 9.52231C17.4688 10.2641 16.8667 10.8661 16.125 10.8661ZM26.875 10.8661C26.1319 10.8661 25.5312 10.2641 25.5312 9.52231C25.5312 8.78056 26.1319 8.17856 26.875 8.17856C27.6181 8.17856 28.2188 8.78056 28.2188 9.52231C28.2188 10.2641 27.6181 10.8661 26.875 10.8661Z" fill="#7CB342"/>
<path d="M29.5629 2L27.3242 5.35803" stroke="#7CB342" stroke-width="2.6875" stroke-linecap="round"/>
<path d="M13.4375 2L15.2287 4.79769" stroke="#7CB342" stroke-width="2.6875" stroke-linecap="round"/>
</svg>
