<svg width="49" height="36" viewBox="0 0 49 36" fill="none" xmlns="http://www.w3.org/2000/svg">
<path d="M41.16 15.8112C41.4739 14.992 41.65 14.0962 41.65 13.1621C41.65 9.1043 38.3578 5.81211 34.3 5.81211C32.7917 5.81211 31.383 6.27148 30.2192 7.05242C28.0984 3.37742 24.1402 0.912109 19.6 0.912109C12.8319 0.912109 7.35 6.39398 7.35 13.1621C7.35 13.3688 7.35766 13.5755 7.36531 13.7823C3.07781 15.2905 0 19.379 0 24.1871C0 30.2738 4.93828 35.2121 11.025 35.2121H39.2C44.613 35.2121 49 30.8251 49 25.4121C49 20.6729 45.6312 16.7146 41.16 15.8112Z" fill="black"/>
</svg>
