<svg width="70" height="70" viewBox="0 0 70 70" fill="none" xmlns="http://www.w3.org/2000/svg">
<path d="M55.3225 9.03125H14.6774C13.1802 9.03125 11.7443 9.62601 10.6857 10.6847C9.62698 11.7434 9.03223 13.1792 9.03223 14.6764V55.3216C9.03223 56.8188 9.62698 58.2546 10.6857 59.3133C11.7443 60.372 13.1802 60.9667 14.6774 60.9667H55.3225C56.8197 60.9667 58.2556 60.372 59.3143 59.3133C60.373 58.2546 60.9677 56.8188 60.9677 55.3216V14.6764C60.9677 13.1792 60.373 11.7434 59.3143 10.6847C58.2556 9.62601 56.8197 9.03125 55.3225 9.03125ZM54.1935 53.0635C54.1935 53.3629 54.0746 53.6501 53.8628 53.8619C53.6511 54.0736 53.3639 54.1925 53.0645 54.1925H16.9355C16.636 54.1925 16.3488 54.0736 16.1371 53.8619C15.9254 53.6501 15.8064 53.3629 15.8064 53.0635V16.9345C15.8064 16.635 15.9254 16.3479 16.1371 16.1361C16.3488 15.9244 16.636 15.8054 16.9355 15.8054H53.0645C53.3639 15.8054 53.6511 15.9244 53.8628 16.1361C54.0746 16.3479 54.1935 16.635 54.1935 16.9345V53.0635Z" fill="#020626"/>
<path d="M1.12903 33.8677H6.77419V36.1257H1.12903C0.829594 36.1257 0.54242 36.0068 0.330686 35.7951C0.118951 35.5833 0 35.2961 0 34.9967C0 34.6973 0.118951 34.4101 0.330686 34.1984C0.54242 33.9866 0.829594 33.8677 1.12903 33.8677Z" fill="#00B956"/>
<path d="M1.12903 45.1638H6.77419V47.4219H1.12903C0.829594 47.4219 0.54242 47.3029 0.330686 47.0912C0.118951 46.8795 0 46.5923 0 46.2929C0 45.9934 0.118951 45.7062 0.330686 45.4945C0.54242 45.2828 0.829594 45.1638 1.12903 45.1638Z" fill="#00B956"/>
<path d="M1.12903 22.5784H6.77419V24.8364H1.12903C0.829594 24.8364 0.54242 24.7175 0.330686 24.5057C0.118951 24.294 0 24.0068 0 23.7074C0 23.408 0.118951 23.1208 0.330686 22.9091C0.54242 22.6973 0.829594 22.5784 1.12903 22.5784Z" fill="#00B956"/>
<path d="M68.871 36.1323H63.2258V33.8743H68.871C69.1704 33.8743 69.4576 33.9932 69.6693 34.2049C69.881 34.4167 70 34.7039 70 35.0033C70 35.3027 69.881 35.5899 69.6693 35.8016C69.4576 36.0134 69.1704 36.1323 68.871 36.1323Z" fill="#00B956"/>
<path d="M68.871 47.4216H63.2258V45.1636H68.871C69.1704 45.1636 69.4576 45.2825 69.6693 45.4943C69.881 45.706 70 45.9932 70 46.2926C70 46.592 69.881 46.8792 69.6693 47.0909C69.4576 47.3027 69.1704 47.4216 68.871 47.4216Z" fill="#00B956"/>
<path d="M68.871 24.8362H63.2258V22.5781H68.871C69.1704 22.5781 69.4576 22.6971 69.6693 22.9088C69.881 23.1205 70 23.4077 70 23.7071C70 24.0066 69.881 24.2938 69.6693 24.5055C69.4576 24.7172 69.1704 24.8362 68.871 24.8362Z" fill="#00B956"/>
<path d="M36.1289 1.12903V6.77419H33.8708V1.12903C33.8708 0.829594 33.9898 0.54242 34.2015 0.330685C34.4133 0.11895 34.7004 0 34.9999 0C35.2993 0 35.5865 0.11895 35.7982 0.330685C36.01 0.54242 36.1289 0.829594 36.1289 1.12903Z" fill="#00B956"/>
<path d="M47.4189 1.12903V6.77419H45.1609V1.12903C45.1609 0.829594 45.2798 0.54242 45.4916 0.330685C45.7033 0.11895 45.9905 0 46.2899 0C46.5894 0 46.8765 0.11895 47.0883 0.330685C47.3 0.54242 47.4189 0.829594 47.4189 1.12903Z" fill="#00B956"/>
<path d="M24.8389 1.12903V6.77419H22.5808V1.12903C22.5808 0.829594 22.6998 0.54242 22.9115 0.330685C23.1232 0.11895 23.4104 0 23.7098 0C24.0093 0 24.2964 0.11895 24.5082 0.330685C24.7199 0.54242 24.8389 0.829594 24.8389 1.12903Z" fill="#00B956"/>
<path d="M33.8711 68.871V63.2258H36.1292V68.871C36.1292 69.1704 36.0102 69.4576 35.7985 69.6693C35.5867 69.881 35.2996 70 35.0001 70C34.7007 70 34.4135 69.881 34.2018 69.6693C33.99 69.4576 33.8711 69.1704 33.8711 68.871Z" fill="#00B956"/>
<path d="M45.1611 68.871V63.2258H47.4192V68.871C47.4192 69.1704 47.3002 69.4576 47.0885 69.6693C46.8768 69.881 46.5896 70 46.2902 70C45.9907 70 45.7036 69.881 45.4918 69.6693C45.2801 69.4576 45.1611 69.1704 45.1611 68.871Z" fill="#00B956"/>
<path d="M22.5811 68.871V63.2258H24.8391V68.871C24.8391 69.1704 24.7202 69.4576 24.5084 69.6693C24.2967 69.881 24.0095 70 23.7101 70C23.4106 70 23.1235 69.881 22.9117 69.6693C22.7 69.4576 22.5811 69.1704 22.5811 68.871Z" fill="#00B956"/>
<path d="M31.0281 29.0035C30.794 28.2448 30.6333 27.6889 30.546 27.3359C30.2721 28.5428 29.9229 29.7314 29.5005 30.8946L27.7539 35.9358H33.39L31.5779 30.67C31.4462 30.3207 31.2629 29.7652 31.0281 29.0035Z" fill="#00B956"/>
<path d="M18.0645 18.0627V51.9337H51.9354V18.0627H18.0645ZM36.1549 44.0305L34.2232 38.6586H26.828L24.9357 44.0305H21.6017L28.8388 24.6111H32.279L39.5161 44.0305H36.1549ZM46.2903 44.0305H43.129V24.6868H46.2903V44.0305Z" fill="#32C5E0"/>
</svg>
