<svg width="44" height="45" viewBox="0 0 44 45" fill="none" xmlns="http://www.w3.org/2000/svg">
<path d="M34.0244 42.2173C33.3894 42.2173 32.7544 42.0534 32.1809 41.7052L23.9668 36.8298C23.1065 36.8093 22.2462 36.7481 21.4268 36.6252C20.8738 36.5433 20.4026 36.1743 20.1978 35.6418C19.993 35.1092 20.0954 34.5356 20.4641 34.1055C21.816 32.5282 22.5125 30.6437 22.5125 28.6363C22.5125 23.6792 18.1494 19.6439 12.7826 19.6439C10.7752 19.6439 8.84968 20.1971 7.23146 21.2623C6.78081 21.5491 6.22775 21.59 5.73613 21.3647C5.26501 21.1394 4.9168 20.6886 4.85535 20.156C4.7939 19.5824 4.75293 19.0091 4.75293 18.415C4.75293 8.25497 13.561 0 24.3765 0C35.192 0 44 8.25497 44 18.415C44 23.9867 41.4191 29.1074 36.8717 32.6102L37.5681 38.182C37.732 39.5749 37.1175 40.8858 35.9499 41.6437C35.3763 42.0125 34.7004 42.2173 34.0244 42.2173ZM24.356 33.7368C24.6428 33.7163 24.9296 33.7984 25.1754 33.9623L33.7581 39.0628C33.9834 39.2062 34.1678 39.1447 34.2907 39.0628C34.3931 39.0013 34.557 38.8375 34.516 38.5507L33.7171 32.0776C33.6557 31.504 33.9015 30.9512 34.3521 30.6234C38.5308 27.6942 40.9275 23.2285 40.9275 18.3739C40.9275 9.91412 33.5123 3.03157 24.3765 3.03157C15.5889 3.03157 8.37855 9.42261 7.84597 17.4523C9.38226 16.8583 11.0415 16.5305 12.7621 16.5305C19.8291 16.5305 25.5646 21.9381 25.5646 28.5953C25.5851 30.3979 25.1549 32.139 24.356 33.7368Z" fill="#292D32"/>
<path d="M6.80064 44.0196C6.26806 44.0196 5.75596 43.8762 5.28483 43.5689C4.36306 42.9749 3.87147 41.9507 3.99437 40.865L4.40403 37.7105C1.63871 35.4573 0 32.1184 0 28.6157C0 24.6213 2.08937 20.8933 5.59211 18.6605C7.70195 17.2881 10.201 16.5508 12.8024 16.5508C19.8694 16.5508 25.6049 21.9584 25.6049 28.6157C25.6049 31.3196 24.6217 33.9825 22.8191 36.0923C20.5044 38.8986 17.0426 40.5373 13.2326 40.6602L8.23451 43.6304C7.78387 43.8966 7.29225 44.0196 6.80064 44.0196ZM12.7819 19.6233C10.7745 19.6233 8.84901 20.1763 7.23078 21.2415C4.60885 22.9212 3.05209 25.666 3.05209 28.6157C3.05209 31.4629 4.44502 34.0644 6.90308 35.7441C7.37421 36.0718 7.61999 36.6249 7.55854 37.1984L7.1079 40.7012L12.0035 37.7925C12.2493 37.6491 12.5156 37.5671 12.7819 37.5671C15.7931 37.5671 18.6404 36.2767 20.4429 34.0849C21.7949 32.4871 22.5118 30.6026 22.5118 28.5952C22.5118 23.6586 18.1488 19.6233 12.7819 19.6233Z" fill="#292D32"/>
</svg>
