<svg width="66" height="40" viewBox="0 0 66 40" fill="none" xmlns="http://www.w3.org/2000/svg">
<path d="M18.599 14.4375C18.599 15.2496 18.6868 15.9082 18.8405 16.3911C19.0161 16.874 19.2356 17.4008 19.5429 17.9716C19.6527 18.1472 19.6966 18.3228 19.6966 18.4764C19.6966 18.6959 19.5649 18.9154 19.2795 19.135L17.8966 20.0569C17.699 20.1886 17.5015 20.2544 17.3259 20.2544C17.1064 20.2544 16.8869 20.1447 16.6673 19.9471C16.36 19.6179 16.0966 19.2667 15.8771 18.9154C15.6576 18.5423 15.4381 18.1252 15.1966 17.6203C13.4845 19.6398 11.3333 20.6496 8.74306 20.6496C6.89919 20.6496 5.42848 20.1227 4.35288 19.0691C3.27729 18.0155 2.72852 16.6106 2.72852 14.8545C2.72852 12.9887 3.38704 11.4741 4.72605 10.3326C6.06505 9.19119 7.84308 8.62047 10.104 8.62047C10.8504 8.62047 11.6186 8.68632 12.4308 8.79608C13.243 8.90583 14.0771 9.08144 14.9552 9.279V7.67658C14.9552 6.00831 14.604 4.84491 13.9235 4.16443C13.221 3.48396 12.0357 3.15469 10.3455 3.15469C9.5772 3.15469 8.78697 3.2425 7.97478 3.44005C7.1626 3.63761 6.37237 3.87907 5.60408 4.18638C5.25287 4.34004 4.98946 4.42784 4.8358 4.47175C4.68215 4.51565 4.57239 4.5376 4.48459 4.5376C4.17728 4.5376 4.02362 4.31809 4.02362 3.85712V2.78153C4.02362 2.43031 4.06752 2.1669 4.17728 2.01324C4.28703 1.85959 4.48459 1.70593 4.7919 1.55228C5.56018 1.15716 6.48212 0.827896 7.55771 0.564485C8.63331 0.279123 9.77476 0.147417 10.9821 0.147417C13.5942 0.147417 15.5039 0.740092 16.7332 1.92544C17.9405 3.11079 18.5551 4.91076 18.5551 7.32536V14.4375H18.599ZM9.68695 17.774C10.4113 17.774 11.1577 17.6423 11.9479 17.3789C12.7381 17.1155 13.4406 16.6325 14.0332 15.974C14.3844 15.557 14.6479 15.096 14.7796 14.5692C14.9113 14.0423 14.9991 13.4058 14.9991 12.6594V11.7375C14.3625 11.5838 13.682 11.4521 12.9796 11.3643C12.2772 11.2765 11.5967 11.2326 10.9162 11.2326C9.44549 11.2326 8.3699 11.518 7.64552 12.1107C6.92114 12.7033 6.56992 13.5375 6.56992 14.635C6.56992 15.6667 6.83333 16.435 7.38211 16.9618C7.90893 17.5106 8.67721 17.774 9.68695 17.774ZM27.3135 20.1447C26.9184 20.1447 26.655 20.0788 26.4794 19.9252C26.3038 19.7935 26.1501 19.4862 26.0184 19.0691L20.86 2.10105C20.7283 1.66203 20.6624 1.37667 20.6624 1.22301C20.6624 0.871797 20.838 0.674239 21.1892 0.674239H23.3404C23.7575 0.674239 24.0428 0.740092 24.1965 0.893748C24.3721 1.02545 24.5038 1.33277 24.6355 1.74983L28.3233 16.2813L31.7476 1.74983C31.8574 1.31082 31.9891 1.02545 32.1647 0.893748C32.3403 0.762043 32.6476 0.674239 33.0427 0.674239H34.7988C35.2159 0.674239 35.5012 0.740092 35.6768 0.893748C35.8524 1.02545 36.0061 1.33277 36.0939 1.74983L39.5621 16.4569L43.3596 1.74983C43.4914 1.31082 43.645 1.02545 43.7987 0.893748C43.9743 0.762043 44.2596 0.674239 44.6548 0.674239H46.6962C47.0474 0.674239 47.245 0.849846 47.245 1.22301C47.245 1.33277 47.223 1.44252 47.2011 1.57423C47.1791 1.70593 47.1352 1.88154 47.0474 2.123L41.7572 19.091C41.6255 19.5301 41.4719 19.8154 41.2963 19.9471C41.1207 20.0788 40.8353 20.1666 40.4621 20.1666H38.5743C38.1573 20.1666 37.8719 20.1008 37.6963 19.9471C37.5207 19.7935 37.3671 19.5081 37.2792 19.0691L33.8769 4.91076L30.4964 19.0471C30.3867 19.4862 30.255 19.7715 30.0793 19.9252C29.9037 20.0788 29.5964 20.1447 29.2013 20.1447H27.3135ZM55.5205 20.7374C54.379 20.7374 53.2376 20.6057 52.14 20.3423C51.0425 20.0788 50.1864 19.7935 49.6157 19.4642C49.2644 19.2667 49.023 19.0471 48.9352 18.8496C48.8474 18.652 48.8035 18.4325 48.8035 18.235V17.1155C48.8035 16.6545 48.9791 16.435 49.3083 16.435C49.4401 16.435 49.5718 16.4569 49.7035 16.5008C49.8352 16.5447 50.0327 16.6325 50.2522 16.7204C50.9986 17.0496 51.8107 17.313 52.6668 17.4886C53.5449 17.6642 54.401 17.752 55.279 17.752C56.6619 17.752 57.7375 17.5106 58.4838 17.0277C59.2302 16.5447 59.6253 15.8423 59.6253 14.9423C59.6253 14.3277 59.4277 13.8228 59.0326 13.4058C58.6375 12.9887 57.8911 12.6155 56.8156 12.2643L53.6327 11.2765C52.0303 10.7717 50.8449 10.0253 50.1205 9.03754C49.3961 8.0717 49.023 6.9961 49.023 5.85465C49.023 4.93271 49.2205 4.12053 49.6157 3.4181C50.0108 2.71567 50.5376 2.10105 51.1961 1.61813C51.8546 1.11326 52.601 0.740092 53.479 0.476681C54.3571 0.21327 55.279 0.103516 56.2448 0.103516C56.7277 0.103516 57.2326 0.125467 57.7155 0.191319C58.2204 0.257172 58.6814 0.344976 59.1423 0.432779C59.5814 0.542534 59.9984 0.652288 60.3936 0.783994C60.7887 0.915699 61.096 1.0474 61.3155 1.17911C61.6228 1.35472 61.8423 1.53032 61.974 1.72788C62.1057 1.90349 62.1716 2.14495 62.1716 2.45226V3.48396C62.1716 3.94492 61.996 4.18638 61.6667 4.18638C61.4911 4.18638 61.2057 4.09858 60.8326 3.92297C59.5814 3.35225 58.1765 3.06689 56.618 3.06689C55.3668 3.06689 54.379 3.26445 53.6985 3.68151C53.018 4.09858 52.6668 4.73516 52.6668 5.63514C52.6668 6.24977 52.8863 6.77659 53.3254 7.19366C53.7644 7.61073 54.5766 8.02779 55.74 8.40096L58.857 9.38875C60.4375 9.89362 61.5789 10.5961 62.2594 11.496C62.9399 12.396 63.2691 13.4277 63.2691 14.5692C63.2691 15.5131 63.0716 16.3691 62.6984 17.1155C62.3033 17.8618 61.7765 18.5203 61.096 19.0471C60.4155 19.5959 59.6033 19.991 58.6594 20.2764C57.6716 20.5837 56.6399 20.7374 55.5205 20.7374Z" fill="#252F3E"/>
<path d="M59.6696 31.4055C52.4477 36.7395 41.9552 39.5712 32.9334 39.5712C20.2897 39.5712 8.89715 34.8957 0.29239 27.125C-0.388088 26.5104 0.226537 25.6763 1.03872 26.1592C10.3459 31.5591 21.8262 34.8298 33.7017 34.8298C41.7138 34.8298 50.5161 33.1615 58.6159 29.7372C59.8232 29.1884 60.8549 30.5274 59.6696 31.4055ZM62.6769 27.9811C61.7549 26.7958 56.5745 27.4104 54.2258 27.6958C53.5233 27.7836 53.4136 27.1689 54.0502 26.708C58.1769 23.8105 64.9598 24.6446 65.75 25.6104C66.5402 26.5982 65.5305 33.381 61.6671 36.6298C61.0745 37.1347 60.5037 36.8712 60.7671 36.2127C61.6452 34.0396 63.5988 29.1445 62.6769 27.9811Z" fill="#FF9900"/>
</svg>
