<svg width="56" height="57" viewBox="0 0 56 57" fill="none" xmlns="http://www.w3.org/2000/svg">
<path d="M0.138146 55.4865C0.0107423 55.1552 -0.0373258 42.5324 0.0312763 27.4404L0.156347 0H28.0782H56V27.9215V55.8435L28.1849 55.9695C6.18904 56.0675 0.321412 55.963 0.138146 55.4865ZM54.3151 28.1623V1.68472H28.0782H1.84135V28.1623V54.6399H28.0782H54.3151V28.1623ZM16.109 44.7878C13.8739 43.9912 11.697 42.0148 10.5064 39.701C9.02142 36.8151 8.58111 32.7251 8.58111 21.8159V11.3133H11.4695H14.358V22.691C14.358 35.1434 14.6348 36.9532 16.8657 39.0906C18.1048 40.2778 18.6372 40.4384 21.3313 40.4384C23.9252 40.4384 24.5883 40.2564 25.6944 39.2348C28.1449 36.9737 28.3189 35.906 28.3189 23.1231V11.3133H31.087H33.8551L33.6125 24.1913C33.3801 36.5183 33.3208 37.1683 32.229 39.3706C30.8907 42.0699 28.5192 44.1751 25.9495 44.9451C23.4809 45.6848 18.3947 45.6008 16.109 44.7878ZM42.2798 32.9766V20.4598H44.9276H47.5753V32.9766V45.4935H44.9276H42.2798V32.9766ZM43.0956 15.1107C41.8059 14.3607 41.2054 12.4244 41.8704 11.1611C42.6382 9.70277 43.2127 9.40316 45.2613 9.39476C48.3881 9.39476 49.6774 12.7544 47.2697 14.6482C45.8845 15.7374 44.447 15.8975 43.0956 15.1107Z" fill="#AAAAAA"/>
</svg>
