<svg width="65" height="26" viewBox="0 0 65 26" fill="none" xmlns="http://www.w3.org/2000/svg">
<path fill-rule="evenodd" clip-rule="evenodd" d="M41.8739 20.4715C42.1219 19.8336 42.403 19.2056 42.6127 18.5553C43.7973 14.881 44.9704 11.2035 46.1359 7.52296C46.5837 6.10903 47.0745 4.71684 47.9557 3.50172C49.3494 1.58145 51.2909 0.575494 53.5886 0.223953C54.49 0.086236 55.41 0.0225538 56.3223 0.0137523C59.0492 -0.0121344 61.7771 0.00598716 64.5045 0.00857583C64.6495 0.00857583 64.7945 0.0235891 65 0.035497C64.9332 0.192888 64.897 0.307307 64.839 0.410336C63.8268 2.2193 62.8343 4.03913 61.7921 5.82997C59.9775 8.94776 58.1597 12.0645 56.2881 15.1481C55.0875 17.1254 53.7854 19.0415 52.3083 20.8297C51.2185 22.1489 50.0712 23.4101 48.6086 24.3348C47.6119 24.9649 46.5475 25.3335 45.3391 25.3273C41.0533 25.304 36.7675 25.3211 32.4817 25.3149C31.2075 25.3128 30.1167 24.8277 29.191 23.9672C27.864 22.7345 27.0719 21.1652 26.4237 19.5106C25.2412 16.4896 24.579 13.3231 23.819 10.1841C23.4628 8.71478 23.0579 7.25684 22.6722 5.79477C22.6473 5.70002 22.5987 5.61149 22.5427 5.47532L22.244 5.75594C20.5728 7.41631 19.1008 9.24598 17.7837 11.1911C17.4249 11.7213 17.3043 12.4202 17.1039 13.0503C16.3667 15.3646 15.6947 17.7011 14.8963 19.9936C14.1316 22.1898 12.7607 23.9367 10.6178 24.969C9.36487 25.5722 8.02704 25.8984 6.63693 25.9294C4.57635 25.975 2.51473 25.9802 0.453637 25.9988C-0.039245 26.0035 -0.0620253 25.9631 0.0663726 25.4862C0.950144 22.2048 2.07 19.0073 3.47306 15.9123C4.91961 12.7195 6.62347 9.67466 8.76999 6.89391C10.2316 5.00056 11.8458 3.25373 13.866 1.93299C14.8906 1.26356 15.9799 0.734438 17.2194 0.595168C17.4234 0.57187 17.63 0.557372 17.835 0.557372C22.2243 0.555301 26.6137 0.599828 31.0025 0.537182C33.3566 0.503529 35.061 1.49758 36.3372 3.39248C37.1309 4.57084 37.6989 5.85741 38.1767 7.18643C39.1402 9.86726 39.7393 12.647 40.4159 15.407C40.8032 16.9866 41.2345 18.5553 41.6476 20.1287C41.6787 20.2468 41.7289 20.3596 41.7708 20.4746L41.8739 20.4715Z" fill="#1384C8"/>
</svg>
