<svg width="50" height="46" viewBox="0 0 50 46" fill="none" xmlns="http://www.w3.org/2000/svg">
<path d="M24.9933 0L10.9062 1.48944L0 16.1298L24.9933 45.2343L49.9866 16.1298L39.0805 1.48944L24.9933 0Z" fill="#FDB300"/>
<path d="M0 16.13L24.9933 45.2343L10.1235 16.13H0Z" fill="#EB6C00"/>
<path d="M39.8628 16.13L24.9932 45.2343L49.9862 16.13H39.8628Z" fill="#EB6C00"/>
<path d="M10.124 16.13L24.9939 45.2343L39.8637 16.13H10.124Z" fill="#FDAD00"/>
<path d="M10.9058 1.48944L10.123 16.1298L24.9929 0L10.9058 1.48944Z" fill="#FDD231"/>
<path d="M39.8628 16.1298L39.0802 1.48925L24.9932 0L39.8628 16.1298Z" fill="#FDD231"/>
<path d="M39.8629 16.1301H49.9861L39.0801 1.4895L39.8629 16.1301Z" fill="#FDAD00"/>
<path d="M0 16.1301H10.1235L10.9062 1.4895L0 16.1301Z" fill="#FDAD00"/>
<path d="M24.9929 0L10.123 16.1298H39.8627L24.9929 0Z" fill="#FEEEB7"/>
</svg>
