<svg width="49" height="49" viewBox="0 0 49 49" fill="none" xmlns="http://www.w3.org/2000/svg">
<path d="M24.5 49C38.031 49 49 38.031 49 24.5C49 10.969 38.031 0 24.5 0C10.969 0 0 10.969 0 24.5C0 38.031 10.969 49 24.5 49Z" fill="#8892BF"/>
<path d="M21.7681 14H24.7081L23.8772 18.4174H26.519C27.9678 18.4483 29.0471 18.7721 29.7574 19.3888C30.4817 20.0053 30.6949 21.1775 30.3967 22.9042L28.9692 30.6056H25.9865L27.3499 23.251C27.4918 22.48 27.4493 21.9327 27.2222 21.609C26.995 21.2852 26.505 21.1234 25.7522 21.1234L23.3872 21.1003L21.6402 30.6056H18.7002L21.7681 14Z" fill="white"/>
<path fill-rule="evenodd" clip-rule="evenodd" d="M8.29661 18.4175H14.0063C15.6821 18.4327 16.8966 18.9572 17.6494 19.99C18.4023 21.0231 18.6508 22.4337 18.3951 24.2224C18.2959 25.0398 18.0756 25.8413 17.7347 26.6278C17.408 27.4141 16.9536 28.1232 16.3712 28.7554C15.6609 29.5571 14.9011 30.0658 14.0915 30.282C13.282 30.4979 12.4438 30.6057 11.5776 30.6057H9.02097L8.21139 35H5.25L8.29661 18.4175ZM9.51099 27.9923L10.785 21.0771H11.2154C11.3718 21.0771 11.5349 21.0693 11.7054 21.054C12.8418 21.0386 13.786 21.1543 14.539 21.4009C15.3058 21.6475 15.5615 22.5804 15.3058 24.1993C14.9936 26.1268 14.3825 27.2522 13.4737 27.5759C12.5648 27.8845 11.4284 28.0308 10.0649 28.0154H9.76664C9.68142 28.0154 9.59621 28.0075 9.51099 27.9923Z" fill="white"/>
<path fill-rule="evenodd" clip-rule="evenodd" d="M39.2641 18.4175H33.5544L30.5078 35H33.4692L34.2789 30.6057H36.8355C37.7017 30.6057 38.5398 30.4979 39.3493 30.282C40.1591 30.0658 40.9187 29.5571 41.6291 28.7554C42.2115 28.1232 42.6658 27.4141 42.9925 26.6278C43.3334 25.8413 43.5537 25.0398 43.6529 24.2224C43.9086 22.4337 43.6603 21.0231 42.9073 19.99C42.1544 18.9572 40.9401 18.4327 39.2641 18.4175ZM36.0429 21.0771L34.7689 27.9923C34.8541 28.0075 34.9393 28.0154 35.0246 28.0154H35.3228C36.6864 28.0308 37.8226 27.8845 38.7316 27.5759C39.6404 27.2522 40.2515 26.1268 40.5638 24.1993C40.8195 22.5804 40.5638 21.6475 39.7968 21.4009C39.044 21.1543 38.0997 21.0386 36.9632 21.054C36.7928 21.0693 36.6297 21.0771 36.4732 21.0771H36.0429Z" fill="white"/>
</svg>
