<svg width="41" height="41" viewBox="0 0 41 41" fill="none" xmlns="http://www.w3.org/2000/svg">
<path d="M20.3522 0C9.94386 7.41707e-07 10.5938 4.51369 10.5938 4.51369L10.6054 9.18982H20.5379V10.5938H6.6603C6.6603 10.5938 0 9.83848 0 20.3406C-7.43312e-07 30.8427 5.81326 30.4703 5.81326 30.4703H9.28265V25.5969C9.28265 25.5969 9.09564 19.7836 15.0031 19.7836H24.8543C24.8543 19.7836 30.3891 19.8731 30.3891 14.4345V5.44195C30.3891 5.44195 31.2294 0 20.3522 0ZM14.8754 3.1445C15.8636 3.1445 16.6624 3.9432 16.6624 4.93141C16.6624 5.91961 15.8636 6.71831 14.8754 6.71831C13.8872 6.71832 13.0885 5.91961 13.0885 4.93141C13.0885 3.9432 13.8872 3.1445 14.8754 3.1445Z" fill="url(#paint0_linear_908_2628)"/>
<path d="M20.6476 40.7865C31.056 40.7865 30.406 36.2728 30.406 36.2728L30.3944 31.5967H20.462V30.1927H34.3395C34.3395 30.1927 40.9998 30.948 40.9998 20.4459C40.9998 9.94378 35.1866 10.3162 35.1866 10.3162H31.7172V15.1896C31.7172 15.1896 31.9042 21.0029 25.9967 21.0029H16.1455C16.1455 21.0029 10.6108 20.9134 10.6108 26.352V35.3445C10.6108 35.3445 9.77042 40.7865 20.6476 40.7865ZM26.1244 37.642C25.1362 37.642 24.3375 36.8433 24.3375 35.8551C24.3375 34.8669 25.1362 34.0682 26.1244 34.0682C27.1126 34.0682 27.9113 34.8669 27.9113 35.8551C27.9113 36.8433 27.1126 37.642 26.1244 37.642Z" fill="url(#paint1_linear_908_2628)"/>
<defs>
<linearGradient id="paint0_linear_908_2628" x1="1008.69" y1="935.502" x2="6210.08" y2="6064.89" gradientUnits="userSpaceOnUse">
<stop stop-color="#387EB8"/>
<stop offset="1" stop-color="#366994"/>
</linearGradient>
<linearGradient id="paint1_linear_908_2628" x1="1499.38" y1="1609.39" x2="7085.12" y2="6869.13" gradientUnits="userSpaceOnUse">
<stop stop-color="#FFE052"/>
<stop offset="1" stop-color="#FFC331"/>
</linearGradient>
</defs>
</svg>
