<svg width="46" height="41" viewBox="0 0 46 41" fill="none" xmlns="http://www.w3.org/2000/svg">
<path fill-rule="evenodd" clip-rule="evenodd" d="M0 19.9286C0 30.8847 0.074153 39.8572 0.166844 39.8572C0.296612 39.8572 16.8698 0.463425 16.8698 0.129734C16.8698 0.0555801 13.0695 -3.05176e-05 8.4349 -3.05176e-05H0V19.9286Z" fill="#ED1C24"/>
<path fill-rule="evenodd" clip-rule="evenodd" d="M28.5488 0.111198C28.5488 0.166813 30.8105 5.59851 33.5727 12.1981C36.3349 18.7977 38.6151 24.2665 38.6336 24.3778C38.6707 24.4704 38.8932 25.0266 39.1342 25.5827C39.3937 26.1389 40.8397 29.587 42.3598 33.2205C43.88 36.8725 45.1962 39.8572 45.2703 39.8572C45.3445 39.8572 45.4186 30.8847 45.4186 19.9286V-3.05176e-05H36.9837C32.3492 -3.05176e-05 28.5488 0.055584 28.5488 0.111198Z" fill="#ED1C24"/>
<path fill-rule="evenodd" clip-rule="evenodd" d="M21.4487 17.4625C17.3332 27.1209 15.3867 31.737 15.3867 31.8853C15.3867 31.9965 16.9995 32.0892 19.2983 32.1077L23.2099 32.1633L24.7485 36.0564L26.2687 39.9494L29.828 40.005C32.2009 40.0421 33.3688 39.9865 33.3688 39.8567C33.3688 39.6157 22.9874 14.9784 22.802 14.7745C22.7279 14.6818 22.1161 15.9053 21.4487 17.4625Z" fill="#ED1C24"/>
</svg>
