<svg width="50" height="56" viewBox="0 0 50 56" fill="none" xmlns="http://www.w3.org/2000/svg">
<path d="M42.9232 10.851C42.8847 10.5708 42.6394 10.4159 42.4366 10.3988C42.2342 10.3818 37.9506 10.0644 37.9506 10.0644C37.9506 10.0644 34.9756 7.11089 34.6492 6.78407C34.3224 6.45725 33.6844 6.55664 33.4368 6.62961C33.4001 6.64036 32.7868 6.82974 31.7718 7.14358C30.7779 4.28409 29.0243 1.65606 25.9387 1.65606C25.8536 1.65606 25.7659 1.65964 25.6781 1.66457C24.8006 0.504116 23.7136 0 22.7747 0C15.5873 0 12.1534 8.98499 11.0767 13.5511C8.28388 14.4165 6.29965 15.0317 6.04625 15.1114C4.48734 15.6003 4.4381 15.6495 4.2335 17.1184C4.07904 18.2305 0 49.7758 0 49.7758L31.7848 55.7312L49.0071 52.0054C49.0071 52.0054 42.9613 11.1313 42.9232 10.851ZM30.015 7.68709C29.2168 7.93422 28.3093 8.21494 27.3257 8.51937C27.3266 8.33 27.3274 8.1433 27.3274 7.9396C27.3274 6.16221 27.0808 4.73134 26.685 3.59686C28.2748 3.79654 29.3336 5.60526 30.015 7.68709ZM24.7129 3.9492C25.1547 5.05683 25.4422 6.64618 25.4422 8.79113C25.4422 8.90082 25.4413 9.0011 25.4404 9.10273C23.6912 9.64446 21.7907 10.2327 19.8857 10.8228C20.9553 6.69498 22.9601 4.70135 24.7129 3.9492ZM22.5773 1.92782C22.8876 1.92782 23.2001 2.03303 23.4991 2.23897C21.1957 3.32287 18.7266 6.05297 17.6839 11.5047C16.1599 11.9766 14.6704 12.4377 13.2932 12.8643C14.5146 8.70607 17.4148 1.92782 22.5773 1.92782Z" fill="#95BF46"/>
<path d="M42.4361 10.399C42.2338 10.382 37.9501 10.0646 37.9501 10.0646C37.9501 10.0646 34.9751 7.11106 34.6488 6.78423C34.5265 6.66246 34.3618 6.60023 34.1894 6.57336L31.7861 55.7309L49.0066 52.0055C49.0066 52.0055 42.9608 11.1314 42.9228 10.8512C42.8843 10.5709 42.6389 10.416 42.4361 10.399Z" fill="#5E8E3E"/>
<path d="M25.9388 19.915L23.8154 26.2317C23.8154 26.2317 21.9547 25.2386 19.6741 25.2386C16.3306 25.2386 16.1623 27.337 16.1623 27.8658C16.1623 30.7508 23.6829 31.8562 23.6829 38.6138C23.6829 43.9303 20.3107 47.3539 15.7639 47.3539C10.3077 47.3539 7.51758 43.9581 7.51758 43.9581L8.97844 39.1314C8.97844 39.1314 11.8464 41.5937 14.2667 41.5937C15.848 41.5937 16.4914 40.3487 16.4914 39.4389C16.4914 35.6755 10.3216 35.5077 10.3216 29.324C10.3216 24.1194 14.0572 19.0827 21.5979 19.0827C24.5035 19.0827 25.9388 19.915 25.9388 19.915Z" fill="white"/>
</svg>
