<svg width="119" height="119" viewBox="0 0 119 119" fill="none" xmlns="http://www.w3.org/2000/svg">
<g filter="url(#filter0_d_908_2514)">
<rect x="22" y="22" width="59" height="59" rx="15" fill="white"/>
<path d="M65.8849 44.495L63.7723 47.6725C64.7911 49.7045 65.2899 51.9575 65.2239 54.2297C65.158 56.5018 64.5294 58.7221 63.3944 60.6916H39.589C38.1139 58.1326 37.5026 55.1664 37.8459 52.2327C38.1891 49.2991 39.4686 46.5541 41.4946 44.4047C43.5205 42.2553 46.1852 40.8161 49.0935 40.3002C52.0018 39.7843 54.9989 40.2194 57.6406 41.5408L60.8181 39.4282C57.583 37.3537 53.7457 36.4242 49.9199 36.7882C46.0942 37.1522 42.501 38.7887 39.7152 41.436C36.9294 44.0833 35.1119 47.5885 34.5534 51.3907C33.995 55.193 34.7278 59.0726 36.6348 62.4092C36.9345 62.9284 37.3649 63.3601 37.8831 63.6614C38.4014 63.9627 38.9895 64.1232 39.589 64.1268H63.3772C63.9825 64.1292 64.5777 63.9716 65.1025 63.67C65.6273 63.3684 66.0631 62.9334 66.3658 62.4092C67.9483 59.6678 68.7425 56.5425 68.6607 53.3782C68.5788 50.2139 67.6241 47.1337 65.902 44.4778L65.8849 44.495Z" fill="black"/>
<path d="M49.0719 56.2432C49.391 56.5626 49.7698 56.816 50.1868 56.9888C50.6039 57.1617 51.0509 57.2507 51.5023 57.2507C51.9537 57.2507 52.4007 57.1617 52.8177 56.9888C53.2348 56.816 53.6136 56.5626 53.9326 56.2432L63.6541 41.6611L49.0719 51.3825C48.7525 51.7015 48.4992 52.0804 48.3263 52.4974C48.1534 52.9144 48.0645 53.3614 48.0645 53.8128C48.0645 54.2643 48.1534 54.7113 48.3263 55.1283C48.4992 55.5453 48.7525 55.9242 49.0719 56.2432Z" fill="black"/>
</g>
<defs>
<filter id="filter0_d_908_2514" x="0" y="0" width="119" height="119" filterUnits="userSpaceOnUse" color-interpolation-filters="sRGB">
<feFlood flood-opacity="0" result="BackgroundImageFix"/>
<feColorMatrix in="SourceAlpha" type="matrix" values="0 0 0 0 0 0 0 0 0 0 0 0 0 0 0 0 0 0 127 0" result="hardAlpha"/>
<feOffset dx="8" dy="8"/>
<feGaussianBlur stdDeviation="15"/>
<feComposite in2="hardAlpha" operator="out"/>
<feColorMatrix type="matrix" values="0 0 0 0 0 0 0 0 0 0 0 0 0 0 0 0 0 0 0.2 0"/>
<feBlend mode="normal" in2="BackgroundImageFix" result="effect1_dropShadow_908_2514"/>
<feBlend mode="normal" in="SourceGraphic" in2="effect1_dropShadow_908_2514" result="shape"/>
</filter>
</defs>
</svg>
