<svg width="77" height="69" viewBox="0 0 77 69" fill="none" xmlns="http://www.w3.org/2000/svg">
<path d="M58.4095 61.7273C64.8236 61.7273 70.0232 56.5277 70.0232 50.1136C70.0232 43.6996 64.8236 38.5 58.4095 38.5C51.9955 38.5 46.7959 43.6996 46.7959 50.1136C46.7959 56.5277 51.9955 61.7273 58.4095 61.7273Z" stroke="#AAAAAA" stroke-width="3.75" stroke-linecap="round" stroke-linejoin="round"/>
<path d="M58.4092 38.5V33.5227" stroke="#AAAAAA" stroke-width="3.75" stroke-linecap="round" stroke-linejoin="round"/>
<path d="M66.6221 41.9004L70.141 38.3815" stroke="#AAAAAA" stroke-width="3.75" stroke-linecap="round" stroke-linejoin="round"/>
<path d="M70.0225 50.1136H74.9997" stroke="#AAAAAA" stroke-width="3.75" stroke-linecap="round" stroke-linejoin="round"/>
<path d="M66.6221 58.3258L70.141 61.8447" stroke="#AAAAAA" stroke-width="3.75" stroke-linecap="round" stroke-linejoin="round"/>
<path d="M58.4092 61.7273V66.7045" stroke="#AAAAAA" stroke-width="3.75" stroke-linecap="round" stroke-linejoin="round"/>
<path d="M50.1967 58.3258L46.6777 61.8447" stroke="#AAAAAA" stroke-width="3.75" stroke-linecap="round" stroke-linejoin="round"/>
<path d="M46.7956 50.1136H41.8184" stroke="#AAAAAA" stroke-width="3.75" stroke-linecap="round" stroke-linejoin="round"/>
<path d="M50.1967 41.9004L46.6777 38.3815" stroke="#AAAAAA" stroke-width="3.75" stroke-linecap="round" stroke-linejoin="round"/>
<path d="M58.409 53.4318C60.2416 53.4318 61.7272 51.9462 61.7272 50.1136C61.7272 48.2811 60.2416 46.7955 58.409 46.7955C56.5764 46.7955 55.0908 48.2811 55.0908 50.1136C55.0908 51.9462 56.5764 53.4318 58.409 53.4318Z" fill="#AAAAAA"/>
<path d="M31.8636 43.4773H2C2 48.9755 6.45632 53.4318 11.9545 53.4318H31.8636" stroke="#AAAAAA" stroke-width="3.75" stroke-linecap="round" stroke-linejoin="round"/>
<path d="M8.63672 35.1818V8.63636C8.63672 4.97143 11.6082 2 15.2731 2H61.7276C65.3926 2 68.364 4.97143 68.364 8.63636V26.8864" stroke="#AAAAAA" stroke-width="3.75" stroke-linecap="round" stroke-linejoin="round"/>
<path d="M36.8408 11.9545H40.159" stroke="#AAAAAA" stroke-width="3.75" stroke-linecap="round" stroke-linejoin="round"/>
</svg>
