<svg width="43" height="57" viewBox="0 0 43 57" fill="none" xmlns="http://www.w3.org/2000/svg">
<path d="M16.3877 39.1653L16.3876 39.1654L16.3966 39.1739C16.6196 39.3842 16.6296 39.7417 16.4236 39.9601L16.4225 39.9614L14.4858 42.0317L14.4857 42.0316L14.4786 42.0396C14.386 42.1437 14.2364 42.2102 14.0803 42.2102C13.9457 42.2102 13.8027 42.1531 13.6998 42.0567L7.27744 36.035L7.27433 36.0322C7.04634 35.8227 7.0396 35.4486 7.27847 35.2223C7.27857 35.2222 7.27867 35.2222 7.27878 35.2221L13.6998 29.2016L13.6998 29.2017L13.7051 29.1966C13.9118 28.996 14.2657 28.9943 14.4866 29.2275C14.4868 29.2278 14.487 29.228 14.4872 29.2282L16.4225 31.297L16.4223 31.2972L16.4322 31.3071L16.4445 31.3193C16.6348 31.5423 16.6126 31.8941 16.384 32.0979C16.3838 32.098 16.3836 32.0982 16.3834 32.0984L12.734 35.3139L12.3762 35.6292L12.734 35.9444L16.3748 39.1524L16.3877 39.1653ZM28.7915 5.49083L28.0743 4.77357V5.78793V14.2583V14.6785H28.4944H36.9649H37.9792L37.262 13.9612L28.7915 5.49083ZM37.3989 52.0775H37.8191V51.6573V19.6011V19.1809H37.3989H25.8231C24.5748 19.1809 23.5719 18.178 23.5719 16.9297V5.35384V4.93367H23.1517H5.34271H4.92254V5.35384V51.6573V52.0775H5.34271H37.3989ZM23.2099 24.2334L23.214 24.2346L25.9298 25.0137L25.9298 25.0137L25.9337 25.0148C26.2282 25.0963 26.4001 25.4036 26.3108 25.7031L26.3101 25.7058L20.2216 46.6537L20.2207 46.6567C20.1386 46.9472 19.8263 47.1238 19.5318 47.0361L19.5292 47.0354L16.8134 46.2451L16.8134 46.245L16.808 46.2436C16.5134 46.1621 16.3416 45.8547 16.4308 45.5552L16.4316 45.5526L22.5193 24.6185C22.5194 24.6181 22.5195 24.6177 22.5196 24.6173C22.6119 24.3096 22.9172 24.1462 23.2099 24.2334ZM26.3539 32.0931L26.3541 32.0929L26.3451 32.0845C26.1221 31.8742 26.112 31.5167 26.318 31.2982L26.3191 31.297L28.2559 29.2267L28.2559 29.2267L28.2588 29.2236C28.4631 29.0007 28.8169 28.9895 29.041 29.2008L29.0418 29.2016L35.4642 35.2233L35.4673 35.2262C35.6953 35.4357 35.702 35.8096 35.4633 36.0359C35.4632 36.036 35.463 36.0362 35.4629 36.0363L29.0418 42.0567L29.041 42.0575C28.8226 42.2634 28.4654 42.2535 28.2551 42.0308C28.255 42.0307 28.2549 42.0306 28.2547 42.0305L26.3191 39.9614L26.3193 39.9612L26.3094 39.9513L26.2972 39.939C26.1068 39.716 26.129 39.364 26.3579 39.1603C26.358 39.1602 26.3581 39.1601 26.3582 39.16L30.0077 35.9444L30.3655 35.6292L30.0077 35.3139L26.3668 32.106L26.3539 32.0931ZM31.5365 1.86652L40.8751 11.2051C41.7983 12.1283 42.3215 13.3905 42.3215 14.6924V51.6573C42.3215 54.3749 40.1165 56.5798 37.3989 56.5798H5.34271C2.62514 56.5798 0.420164 54.3749 0.420164 51.6573V5.35384C0.420164 2.63683 2.62476 0.430841 5.34352 0.420164H28.0603C29.3613 0.420164 30.6127 0.942727 31.5365 1.86652Z" fill="#333333" stroke="white" stroke-width="0.840328"/>
</svg>
