<svg width="71" height="23" viewBox="0 0 71 23" fill="none" xmlns="http://www.w3.org/2000/svg">
<path d="M0.085 11.15C0.085 9.02133 0.560333 7.12 1.511 5.446C2.48233 3.75133 3.79467 2.439 5.448 1.509C7.122 0.558333 8.99233 0.0829995 11.059 0.0829995C13.477 0.0829995 15.5953 0.702999 17.414 1.943C19.2327 3.183 20.5037 4.89833 21.227 7.089H16.236C15.74 6.05567 15.0373 5.28067 14.128 4.764C13.2393 4.24733 12.206 3.989 11.028 3.989C9.76733 3.989 8.641 4.28867 7.649 4.888C6.67767 5.46667 5.913 6.29333 5.355 7.368C4.81767 8.44267 4.549 9.70333 4.549 11.15C4.549 12.576 4.81767 13.8367 5.355 14.932C5.913 16.0067 6.67767 16.8437 7.649 17.443C8.641 18.0217 9.76733 18.311 11.028 18.311C12.206 18.311 13.2393 18.0527 14.128 17.536C15.0373 16.9987 15.74 16.2133 16.236 15.18H21.227C20.5037 17.3913 19.2327 19.117 17.414 20.357C15.616 21.5763 13.4977 22.186 11.059 22.186C8.99233 22.186 7.122 21.721 5.448 20.791C3.79467 19.8403 2.48233 18.528 1.511 16.854C0.560333 15.18 0.085 13.2787 0.085 11.15ZM39.4419 22L34.7609 14.715L30.5139 22H25.6159L32.4359 11.088L25.5229 0.362H30.5139L35.1949 7.616L39.4109 0.362H44.3089L37.5199 11.243L44.4329 22H39.4419ZM59.3299 22.217C57.3045 22.217 55.4445 21.7417 53.7499 20.791C52.0552 19.8403 50.7119 18.528 49.7199 16.854C48.7279 15.1593 48.2319 13.2477 48.2319 11.119C48.2319 9.011 48.7279 7.12 49.7199 5.446C50.7119 3.75133 52.0552 2.42866 53.7499 1.478C55.4445 0.527333 57.3045 0.0519999 59.3299 0.0519999C61.3759 0.0519999 63.2359 0.527333 64.9099 1.478C66.6045 2.42866 67.9375 3.75133 68.9089 5.446C69.9009 7.12 70.3969 9.011 70.3969 11.119C70.3969 13.2477 69.9009 15.1593 68.9089 16.854C67.9375 18.528 66.6045 19.8403 64.9099 20.791C63.2152 21.7417 61.3552 22.217 59.3299 22.217ZM59.3299 18.342C60.6319 18.342 61.7789 18.0527 62.7709 17.474C63.7629 16.8747 64.5379 16.0273 65.0959 14.932C65.6539 13.8367 65.9329 12.5657 65.9329 11.119C65.9329 9.67233 65.6539 8.41167 65.0959 7.337C64.5379 6.24167 63.7629 5.40467 62.7709 4.826C61.7789 4.24733 60.6319 3.958 59.3299 3.958C58.0279 3.958 56.8705 4.24733 55.8579 4.826C54.8659 5.40467 54.0909 6.24167 53.5329 7.337C52.9749 8.41167 52.6959 9.67233 52.6959 11.119C52.6959 12.5657 52.9749 13.8367 53.5329 14.932C54.0909 16.0273 54.8659 16.8747 55.8579 17.474C56.8705 18.0527 58.0279 18.342 59.3299 18.342Z" fill="#32C5E0"/>
</svg>
