<svg width="67" height="23" viewBox="0 0 67 23" fill="none" xmlns="http://www.w3.org/2000/svg">
<path d="M0.085 11.15C0.085 9.02133 0.560333 7.12 1.511 5.446C2.48233 3.75133 3.79467 2.439 5.448 1.509C7.122 0.558333 8.99233 0.0829995 11.059 0.0829995C13.477 0.0829995 15.5953 0.702999 17.414 1.943C19.2327 3.183 20.5037 4.89833 21.227 7.089H16.236C15.74 6.05567 15.0373 5.28067 14.128 4.764C13.2393 4.24733 12.206 3.989 11.028 3.989C9.76733 3.989 8.641 4.28867 7.649 4.888C6.67767 5.46667 5.913 6.29333 5.355 7.368C4.81767 8.44267 4.549 9.70333 4.549 11.15C4.549 12.576 4.81767 13.8367 5.355 14.932C5.913 16.0067 6.67767 16.8437 7.649 17.443C8.641 18.0217 9.76733 18.311 11.028 18.311C12.206 18.311 13.2393 18.0527 14.128 17.536C15.0373 16.9987 15.74 16.2133 16.236 15.18H21.227C20.5037 17.3913 19.2327 19.117 17.414 20.357C15.616 21.5763 13.4977 22.186 11.059 22.186C8.99233 22.186 7.122 21.721 5.448 20.791C3.79467 19.8403 2.48233 18.528 1.511 16.854C0.560333 15.18 0.085 13.2787 0.085 11.15ZM33.3349 22.217C31.8263 22.217 30.4623 21.9587 29.2429 21.442C28.0443 20.9253 27.0936 20.1813 26.3909 19.21C25.6883 18.2387 25.3266 17.0917 25.3059 15.769H29.9559C30.0179 16.6577 30.3279 17.3603 30.8859 17.877C31.4646 18.3937 32.2499 18.652 33.2419 18.652C34.2546 18.652 35.0503 18.4143 35.6289 17.939C36.2076 17.443 36.4969 16.8023 36.4969 16.017C36.4969 15.3763 36.3006 14.8493 35.9079 14.436C35.5153 14.0227 35.0193 13.7023 34.4199 13.475C33.8413 13.227 33.0353 12.9583 32.0019 12.669C30.5966 12.2557 29.4496 11.8527 28.5609 11.46C27.6929 11.0467 26.9386 10.437 26.2979 9.631C25.6779 8.80433 25.3679 7.709 25.3679 6.345C25.3679 5.06367 25.6883 3.94767 26.3289 2.997C26.9696 2.04633 27.8686 1.323 29.0259 0.826999C30.1833 0.310333 31.5059 0.0519999 32.9939 0.0519999C35.2259 0.0519999 37.0343 0.599666 38.4189 1.695C39.8243 2.76967 40.5993 4.27833 40.7439 6.221H35.9699C35.9286 5.477 35.6083 4.86733 35.0089 4.392C34.4303 3.896 33.6553 3.648 32.6839 3.648C31.8366 3.648 31.1546 3.865 30.6379 4.299C30.1419 4.733 29.8939 5.36333 29.8939 6.19C29.8939 6.76867 30.0799 7.25433 30.4519 7.647C30.8446 8.019 31.3199 8.329 31.8779 8.577C32.4566 8.80433 33.2626 9.073 34.2959 9.383C35.7013 9.79633 36.8483 10.2097 37.7369 10.623C38.6256 11.0363 39.3903 11.6563 40.0309 12.483C40.6716 13.3097 40.9919 14.3947 40.9919 15.738C40.9919 16.8953 40.6923 17.97 40.0929 18.962C39.4936 19.954 38.6153 20.7497 37.4579 21.349C36.3006 21.9277 34.9263 22.217 33.3349 22.217ZM55.7285 22.217C53.7032 22.217 51.8432 21.7417 50.1485 20.791C48.4539 19.8403 47.1105 18.528 46.1185 16.854C45.1265 15.1593 44.6305 13.2477 44.6305 11.119C44.6305 9.011 45.1265 7.12 46.1185 5.446C47.1105 3.75133 48.4539 2.42866 50.1485 1.478C51.8432 0.527333 53.7032 0.0519999 55.7285 0.0519999C57.7745 0.0519999 59.6345 0.527333 61.3085 1.478C63.0032 2.42866 64.3362 3.75133 65.3075 5.446C66.2995 7.12 66.7955 9.011 66.7955 11.119C66.7955 13.2477 66.2995 15.1593 65.3075 16.854C64.3362 18.528 63.0032 19.8403 61.3085 20.791C59.6139 21.7417 57.7539 22.217 55.7285 22.217ZM55.7285 18.342C57.0305 18.342 58.1775 18.0527 59.1695 17.474C60.1615 16.8747 60.9365 16.0273 61.4945 14.932C62.0525 13.8367 62.3315 12.5657 62.3315 11.119C62.3315 9.67233 62.0525 8.41167 61.4945 7.337C60.9365 6.24167 60.1615 5.40467 59.1695 4.826C58.1775 4.24733 57.0305 3.958 55.7285 3.958C54.4265 3.958 53.2692 4.24733 52.2565 4.826C51.2645 5.40467 50.4895 6.24167 49.9315 7.337C49.3735 8.41167 49.0945 9.67233 49.0945 11.119C49.0945 12.5657 49.3735 13.8367 49.9315 14.932C50.4895 16.0273 51.2645 16.8747 52.2565 17.474C53.2692 18.0527 54.4265 18.342 55.7285 18.342Z" fill="#32C5E0"/>
</svg>
