<svg width="128" height="79" viewBox="0 0 128 79" fill="none" xmlns="http://www.w3.org/2000/svg">
<g filter="url(#filter0_d_1725_1313)">
<rect x="18" y="18" width="88" height="39" rx="19.5" fill="white"/>
<rect x="18.25" y="18.25" width="87.5" height="38.5" rx="19.25" stroke="#D8D8D8" stroke-width="0.5"/>
</g>
<path d="M27.085 38.15C27.085 36.0213 27.5603 34.12 28.511 32.446C29.4823 30.7513 30.7947 29.439 32.448 28.509C34.122 27.5583 35.9923 27.083 38.059 27.083C40.477 27.083 42.5953 27.703 44.414 28.943C46.2327 30.183 47.5037 31.8983 48.227 34.089H43.236C42.74 33.0557 42.0373 32.2807 41.128 31.764C40.2393 31.2473 39.206 30.989 38.028 30.989C36.7673 30.989 35.641 31.2887 34.649 31.888C33.6777 32.4667 32.913 33.2933 32.355 34.368C31.8177 35.4427 31.549 36.7033 31.549 38.15C31.549 39.576 31.8177 40.8367 32.355 41.932C32.913 43.0067 33.6777 43.8437 34.649 44.443C35.641 45.0217 36.7673 45.311 38.028 45.311C39.206 45.311 40.2393 45.0527 41.128 44.536C42.0373 43.9987 42.74 43.2133 43.236 42.18H48.227C47.5037 44.3913 46.2327 46.117 44.414 47.357C42.616 48.5763 40.4977 49.186 38.059 49.186C35.9923 49.186 34.122 48.721 32.448 47.791C30.7947 46.8403 29.4823 45.528 28.511 43.854C27.5603 42.18 27.085 40.2787 27.085 38.15ZM66.4419 49L61.7609 41.715L57.5139 49H52.6159L59.4359 38.088L52.5229 27.362H57.5139L62.1949 34.616L66.4109 27.362H71.3089L64.5199 38.243L71.4329 49H66.4419ZM86.3299 49.217C84.3045 49.217 82.4445 48.7417 80.7499 47.791C79.0552 46.8403 77.7119 45.528 76.7199 43.854C75.7279 42.1593 75.2319 40.2477 75.2319 38.119C75.2319 36.011 75.7279 34.12 76.7199 32.446C77.7119 30.7513 79.0552 29.4287 80.7499 28.478C82.4445 27.5273 84.3045 27.052 86.3299 27.052C88.3759 27.052 90.2359 27.5273 91.9099 28.478C93.6045 29.4287 94.9375 30.7513 95.9089 32.446C96.9009 34.12 97.3969 36.011 97.3969 38.119C97.3969 40.2477 96.9009 42.1593 95.9089 43.854C94.9375 45.528 93.6045 46.8403 91.9099 47.791C90.2152 48.7417 88.3552 49.217 86.3299 49.217ZM86.3299 45.342C87.6319 45.342 88.7789 45.0527 89.7709 44.474C90.7629 43.8747 91.5379 43.0273 92.0959 41.932C92.6539 40.8367 92.9329 39.5657 92.9329 38.119C92.9329 36.6723 92.6539 35.4117 92.0959 34.337C91.5379 33.2417 90.7629 32.4047 89.7709 31.826C88.7789 31.2473 87.6319 30.958 86.3299 30.958C85.0279 30.958 83.8705 31.2473 82.8579 31.826C81.8659 32.4047 81.0909 33.2417 80.5329 34.337C79.9749 35.4117 79.6959 36.6723 79.6959 38.119C79.6959 39.5657 79.9749 40.8367 80.5329 41.932C81.0909 43.0273 81.8659 43.8747 82.8579 44.474C83.8705 45.0527 85.0279 45.342 86.3299 45.342Z" fill="#32C5E0"/>
<defs>
<filter id="filter0_d_1725_1313" x="0" y="0" width="128" height="79" filterUnits="userSpaceOnUse" color-interpolation-filters="sRGB">
<feFlood flood-opacity="0" result="BackgroundImageFix"/>
<feColorMatrix in="SourceAlpha" type="matrix" values="0 0 0 0 0 0 0 0 0 0 0 0 0 0 0 0 0 0 127 0" result="hardAlpha"/>
<feOffset dx="2" dy="2"/>
<feGaussianBlur stdDeviation="10"/>
<feComposite in2="hardAlpha" operator="out"/>
<feColorMatrix type="matrix" values="0 0 0 0 0 0 0 0 0 0 0 0 0 0 0 0 0 0 0.25 0"/>
<feBlend mode="normal" in2="BackgroundImageFix" result="effect1_dropShadow_1725_1313"/>
<feBlend mode="normal" in="SourceGraphic" in2="effect1_dropShadow_1725_1313" result="shape"/>
</filter>
</defs>
</svg>
