<svg width="128" height="79" viewBox="0 0 128 79" fill="none" xmlns="http://www.w3.org/2000/svg">
<g filter="url(#filter0_d_1725_1314)">
<rect x="18" y="18" width="88" height="39" rx="19.5" fill="white"/>
<rect x="18.25" y="18.25" width="87.5" height="38.5" rx="19.25" stroke="#D8D8D8" stroke-width="0.5"/>
</g>
<path d="M30.085 38.15C30.085 36.0213 30.5603 34.12 31.511 32.446C32.4823 30.7513 33.7947 29.439 35.448 28.509C37.122 27.5583 38.9923 27.083 41.059 27.083C43.477 27.083 45.5953 27.703 47.414 28.943C49.2327 30.183 50.5037 31.8983 51.227 34.089H46.236C45.74 33.0557 45.0373 32.2807 44.128 31.764C43.2393 31.2473 42.206 30.989 41.028 30.989C39.7673 30.989 38.641 31.2887 37.649 31.888C36.6777 32.4667 35.913 33.2933 35.355 34.368C34.8177 35.4427 34.549 36.7033 34.549 38.15C34.549 39.576 34.8177 40.8367 35.355 41.932C35.913 43.0067 36.6777 43.8437 37.649 44.443C38.641 45.0217 39.7673 45.311 41.028 45.311C42.206 45.311 43.2393 45.0527 44.128 44.536C45.0373 43.9987 45.74 43.2133 46.236 42.18H51.227C50.5037 44.3913 49.2327 46.117 47.414 47.357C45.616 48.5763 43.4977 49.186 41.059 49.186C38.9923 49.186 37.122 48.721 35.448 47.791C33.7947 46.8403 32.4823 45.528 31.511 43.854C30.5603 42.18 30.085 40.2787 30.085 38.15ZM69.8449 27.362V30.865H60.8239V36.414H67.7369V39.855H60.8239V49H56.4839V27.362H69.8449ZM84.5164 49.217C82.4911 49.217 80.6311 48.7417 78.9364 47.791C77.2417 46.8403 75.8984 45.528 74.9064 43.854C73.9144 42.1593 73.4184 40.2477 73.4184 38.119C73.4184 36.011 73.9144 34.12 74.9064 32.446C75.8984 30.7513 77.2417 29.4287 78.9364 28.478C80.6311 27.5273 82.4911 27.052 84.5164 27.052C86.5624 27.052 88.4224 27.5273 90.0964 28.478C91.7911 29.4287 93.1241 30.7513 94.0954 32.446C95.0874 34.12 95.5834 36.011 95.5834 38.119C95.5834 40.2477 95.0874 42.1593 94.0954 43.854C93.1241 45.528 91.7911 46.8403 90.0964 47.791C88.4017 48.7417 86.5417 49.217 84.5164 49.217ZM84.5164 45.342C85.8184 45.342 86.9654 45.0527 87.9574 44.474C88.9494 43.8747 89.7244 43.0273 90.2824 41.932C90.8404 40.8367 91.1194 39.5657 91.1194 38.119C91.1194 36.6723 90.8404 35.4117 90.2824 34.337C89.7244 33.2417 88.9494 32.4047 87.9574 31.826C86.9654 31.2473 85.8184 30.958 84.5164 30.958C83.2144 30.958 82.0571 31.2473 81.0444 31.826C80.0524 32.4047 79.2774 33.2417 78.7194 34.337C78.1614 35.4117 77.8824 36.6723 77.8824 38.119C77.8824 39.5657 78.1614 40.8367 78.7194 41.932C79.2774 43.0273 80.0524 43.8747 81.0444 44.474C82.0571 45.0527 83.2144 45.342 84.5164 45.342Z" fill="#32C5E0"/>
<defs>
<filter id="filter0_d_1725_1314" x="0" y="0" width="128" height="79" filterUnits="userSpaceOnUse" color-interpolation-filters="sRGB">
<feFlood flood-opacity="0" result="BackgroundImageFix"/>
<feColorMatrix in="SourceAlpha" type="matrix" values="0 0 0 0 0 0 0 0 0 0 0 0 0 0 0 0 0 0 127 0" result="hardAlpha"/>
<feOffset dx="2" dy="2"/>
<feGaussianBlur stdDeviation="10"/>
<feComposite in2="hardAlpha" operator="out"/>
<feColorMatrix type="matrix" values="0 0 0 0 0 0 0 0 0 0 0 0 0 0 0 0 0 0 0.25 0"/>
<feBlend mode="normal" in2="BackgroundImageFix" result="effect1_dropShadow_1725_1314"/>
<feBlend mode="normal" in="SourceGraphic" in2="effect1_dropShadow_1725_1314" result="shape"/>
</filter>
</defs>
</svg>
