<svg width="76" height="23" viewBox="0 0 76 23" fill="none" xmlns="http://www.w3.org/2000/svg">
<path d="M0.085 11.15C0.085 9.02133 0.560333 7.12 1.511 5.446C2.48233 3.75133 3.79467 2.439 5.448 1.509C7.122 0.558333 8.99233 0.0829995 11.059 0.0829995C13.477 0.0829995 15.5953 0.702999 17.414 1.943C19.2327 3.183 20.5037 4.89833 21.227 7.089H16.236C15.74 6.05567 15.0373 5.28067 14.128 4.764C13.2393 4.24733 12.206 3.989 11.028 3.989C9.76733 3.989 8.641 4.28867 7.649 4.888C6.67767 5.46667 5.913 6.29333 5.355 7.368C4.81767 8.44267 4.549 9.70333 4.549 11.15C4.549 12.576 4.81767 13.8367 5.355 14.932C5.913 16.0067 6.67767 16.8437 7.649 17.443C8.641 18.0217 9.76733 18.311 11.028 18.311C12.206 18.311 13.2393 18.0527 14.128 17.536C15.0373 16.9987 15.74 16.2133 16.236 15.18H21.227C20.5037 17.3913 19.2327 19.117 17.414 20.357C15.616 21.5763 13.4977 22.186 11.059 22.186C8.99233 22.186 7.122 21.721 5.448 20.791C3.79467 19.8403 2.48233 18.528 1.511 16.854C0.560333 15.18 0.085 13.2787 0.085 11.15ZM49.4549 0.362V22H45.1149V7.926L39.3179 22H36.0319L30.2039 7.926V22H25.8639V0.362H30.7929L37.6749 16.451L44.5569 0.362H49.4549ZM64.7198 22.217C62.6944 22.217 60.8344 21.7417 59.1398 20.791C57.4451 19.8403 56.1018 18.528 55.1098 16.854C54.1178 15.1593 53.6218 13.2477 53.6218 11.119C53.6218 9.011 54.1178 7.12 55.1098 5.446C56.1018 3.75133 57.4451 2.42866 59.1398 1.478C60.8344 0.527333 62.6944 0.0519999 64.7198 0.0519999C66.7658 0.0519999 68.6258 0.527333 70.2998 1.478C71.9944 2.42866 73.3274 3.75133 74.2988 5.446C75.2908 7.12 75.7868 9.011 75.7868 11.119C75.7868 13.2477 75.2908 15.1593 74.2988 16.854C73.3274 18.528 71.9944 19.8403 70.2998 20.791C68.6051 21.7417 66.7451 22.217 64.7198 22.217ZM64.7198 18.342C66.0218 18.342 67.1688 18.0527 68.1608 17.474C69.1528 16.8747 69.9278 16.0273 70.4858 14.932C71.0438 13.8367 71.3228 12.5657 71.3228 11.119C71.3228 9.67233 71.0438 8.41167 70.4858 7.337C69.9278 6.24167 69.1528 5.40467 68.1608 4.826C67.1688 4.24733 66.0218 3.958 64.7198 3.958C63.4178 3.958 62.2604 4.24733 61.2478 4.826C60.2558 5.40467 59.4808 6.24167 58.9228 7.337C58.3648 8.41167 58.0858 9.67233 58.0858 11.119C58.0858 12.5657 58.3648 13.8367 58.9228 14.932C59.4808 16.0273 60.2558 16.8747 61.2478 17.474C62.2604 18.0527 63.4178 18.342 64.7198 18.342Z" fill="#32C5E0"/>
</svg>
