<svg width="128" height="79" viewBox="0 0 128 79" fill="none" xmlns="http://www.w3.org/2000/svg">
<g filter="url(#filter0_d_1725_1312)">
<rect x="18" y="18" width="88" height="39" rx="19.5" fill="white"/>
<rect x="18.25" y="18.25" width="87.5" height="38.5" rx="19.25" stroke="#D8D8D8" stroke-width="0.5"/>
</g>
<path d="M29.085 38.15C29.085 36.0213 29.5603 34.12 30.511 32.446C31.4823 30.7513 32.7947 29.439 34.448 28.509C36.122 27.5583 37.9923 27.083 40.059 27.083C42.477 27.083 44.5953 27.703 46.414 28.943C48.2327 30.183 49.5037 31.8983 50.227 34.089H45.236C44.74 33.0557 44.0373 32.2807 43.128 31.764C42.2393 31.2473 41.206 30.989 40.028 30.989C38.7673 30.989 37.641 31.2887 36.649 31.888C35.6777 32.4667 34.913 33.2933 34.355 34.368C33.8177 35.4427 33.549 36.7033 33.549 38.15C33.549 39.576 33.8177 40.8367 34.355 41.932C34.913 43.0067 35.6777 43.8437 36.649 44.443C37.641 45.0217 38.7673 45.311 40.028 45.311C41.206 45.311 42.2393 45.0527 43.128 44.536C44.0373 43.9987 44.74 43.2133 45.236 42.18H50.227C49.5037 44.3913 48.2327 46.117 46.414 47.357C44.616 48.5763 42.4977 49.186 40.059 49.186C37.9923 49.186 36.122 48.721 34.448 47.791C32.7947 46.8403 31.4823 45.528 30.511 43.854C29.5603 42.18 29.085 40.2787 29.085 38.15ZM62.3349 49.217C60.8263 49.217 59.4623 48.9587 58.2429 48.442C57.0443 47.9253 56.0936 47.1813 55.3909 46.21C54.6883 45.2387 54.3266 44.0917 54.3059 42.769H58.9559C59.0179 43.6577 59.3279 44.3603 59.8859 44.877C60.4646 45.3937 61.2499 45.652 62.2419 45.652C63.2546 45.652 64.0503 45.4143 64.6289 44.939C65.2076 44.443 65.4969 43.8023 65.4969 43.017C65.4969 42.3763 65.3006 41.8493 64.9079 41.436C64.5153 41.0227 64.0193 40.7023 63.4199 40.475C62.8413 40.227 62.0353 39.9583 61.0019 39.669C59.5966 39.2557 58.4496 38.8527 57.5609 38.46C56.6929 38.0467 55.9386 37.437 55.2979 36.631C54.6779 35.8043 54.3679 34.709 54.3679 33.345C54.3679 32.0637 54.6883 30.9477 55.3289 29.997C55.9696 29.0463 56.8686 28.323 58.0259 27.827C59.1833 27.3103 60.5059 27.052 61.9939 27.052C64.2259 27.052 66.0343 27.5997 67.4189 28.695C68.8243 29.7697 69.5993 31.2783 69.7439 33.221H64.9699C64.9286 32.477 64.6083 31.8673 64.0089 31.392C63.4303 30.896 62.6553 30.648 61.6839 30.648C60.8366 30.648 60.1546 30.865 59.6379 31.299C59.1419 31.733 58.8939 32.3633 58.8939 33.19C58.8939 33.7687 59.0799 34.2543 59.4519 34.647C59.8446 35.019 60.3199 35.329 60.8779 35.577C61.4566 35.8043 62.2626 36.073 63.2959 36.383C64.7013 36.7963 65.8483 37.2097 66.7369 37.623C67.6256 38.0363 68.3903 38.6563 69.0309 39.483C69.6716 40.3097 69.9919 41.3947 69.9919 42.738C69.9919 43.8953 69.6923 44.97 69.0929 45.962C68.4936 46.954 67.6153 47.7497 66.4579 48.349C65.3006 48.9277 63.9263 49.217 62.3349 49.217ZM84.7285 49.217C82.7032 49.217 80.8432 48.7417 79.1485 47.791C77.4539 46.8403 76.1105 45.528 75.1185 43.854C74.1265 42.1593 73.6305 40.2477 73.6305 38.119C73.6305 36.011 74.1265 34.12 75.1185 32.446C76.1105 30.7513 77.4539 29.4287 79.1485 28.478C80.8432 27.5273 82.7032 27.052 84.7285 27.052C86.7745 27.052 88.6345 27.5273 90.3085 28.478C92.0032 29.4287 93.3362 30.7513 94.3075 32.446C95.2995 34.12 95.7955 36.011 95.7955 38.119C95.7955 40.2477 95.2995 42.1593 94.3075 43.854C93.3362 45.528 92.0032 46.8403 90.3085 47.791C88.6139 48.7417 86.7539 49.217 84.7285 49.217ZM84.7285 45.342C86.0305 45.342 87.1775 45.0527 88.1695 44.474C89.1615 43.8747 89.9365 43.0273 90.4945 41.932C91.0525 40.8367 91.3315 39.5657 91.3315 38.119C91.3315 36.6723 91.0525 35.4117 90.4945 34.337C89.9365 33.2417 89.1615 32.4047 88.1695 31.826C87.1775 31.2473 86.0305 30.958 84.7285 30.958C83.4265 30.958 82.2692 31.2473 81.2565 31.826C80.2645 32.4047 79.4895 33.2417 78.9315 34.337C78.3735 35.4117 78.0945 36.6723 78.0945 38.119C78.0945 39.5657 78.3735 40.8367 78.9315 41.932C79.4895 43.0273 80.2645 43.8747 81.2565 44.474C82.2692 45.0527 83.4265 45.342 84.7285 45.342Z" fill="#32C5E0"/>
<defs>
<filter id="filter0_d_1725_1312" x="0" y="0" width="128" height="79" filterUnits="userSpaceOnUse" color-interpolation-filters="sRGB">
<feFlood flood-opacity="0" result="BackgroundImageFix"/>
<feColorMatrix in="SourceAlpha" type="matrix" values="0 0 0 0 0 0 0 0 0 0 0 0 0 0 0 0 0 0 127 0" result="hardAlpha"/>
<feOffset dx="2" dy="2"/>
<feGaussianBlur stdDeviation="10"/>
<feComposite in2="hardAlpha" operator="out"/>
<feColorMatrix type="matrix" values="0 0 0 0 0 0 0 0 0 0 0 0 0 0 0 0 0 0 0.25 0"/>
<feBlend mode="normal" in2="BackgroundImageFix" result="effect1_dropShadow_1725_1312"/>
<feBlend mode="normal" in="SourceGraphic" in2="effect1_dropShadow_1725_1312" result="shape"/>
</filter>
</defs>
</svg>
