<svg width="66" height="23" viewBox="0 0 66 23" fill="none" xmlns="http://www.w3.org/2000/svg">
<path d="M0.085 11.15C0.085 9.02133 0.560333 7.12 1.511 5.446C2.48233 3.75133 3.79467 2.439 5.448 1.509C7.122 0.558333 8.99233 0.0829995 11.059 0.0829995C13.477 0.0829995 15.5953 0.702999 17.414 1.943C19.2327 3.183 20.5037 4.89833 21.227 7.089H16.236C15.74 6.05567 15.0373 5.28067 14.128 4.764C13.2393 4.24733 12.206 3.989 11.028 3.989C9.76733 3.989 8.641 4.28867 7.649 4.888C6.67767 5.46667 5.913 6.29333 5.355 7.368C4.81767 8.44267 4.549 9.70333 4.549 11.15C4.549 12.576 4.81767 13.8367 5.355 14.932C5.913 16.0067 6.67767 16.8437 7.649 17.443C8.641 18.0217 9.76733 18.311 11.028 18.311C12.206 18.311 13.2393 18.0527 14.128 17.536C15.0373 16.9987 15.74 16.2133 16.236 15.18H21.227C20.5037 17.3913 19.2327 19.117 17.414 20.357C15.616 21.5763 13.4977 22.186 11.059 22.186C8.99233 22.186 7.122 21.721 5.448 20.791C3.79467 19.8403 2.48233 18.528 1.511 16.854C0.560333 15.18 0.085 13.2787 0.085 11.15ZM39.8449 0.362V3.865H30.8239V9.414H37.7369V12.855H30.8239V22H26.4839V0.362H39.8449ZM54.5164 22.217C52.4911 22.217 50.6311 21.7417 48.9364 20.791C47.2417 19.8403 45.8984 18.528 44.9064 16.854C43.9144 15.1593 43.4184 13.2477 43.4184 11.119C43.4184 9.011 43.9144 7.12 44.9064 5.446C45.8984 3.75133 47.2417 2.42866 48.9364 1.478C50.6311 0.527333 52.4911 0.0519999 54.5164 0.0519999C56.5624 0.0519999 58.4224 0.527333 60.0964 1.478C61.7911 2.42866 63.1241 3.75133 64.0954 5.446C65.0874 7.12 65.5834 9.011 65.5834 11.119C65.5834 13.2477 65.0874 15.1593 64.0954 16.854C63.1241 18.528 61.7911 19.8403 60.0964 20.791C58.4017 21.7417 56.5417 22.217 54.5164 22.217ZM54.5164 18.342C55.8184 18.342 56.9654 18.0527 57.9574 17.474C58.9494 16.8747 59.7244 16.0273 60.2824 14.932C60.8404 13.8367 61.1194 12.5657 61.1194 11.119C61.1194 9.67233 60.8404 8.41167 60.2824 7.337C59.7244 6.24167 58.9494 5.40467 57.9574 4.826C56.9654 4.24733 55.8184 3.958 54.5164 3.958C53.2144 3.958 52.0571 4.24733 51.0444 4.826C50.0524 5.40467 49.2774 6.24167 48.7194 7.337C48.1614 8.41167 47.8824 9.67233 47.8824 11.119C47.8824 12.5657 48.1614 13.8367 48.7194 14.932C49.2774 16.0273 50.0524 16.8747 51.0444 17.474C52.0571 18.0527 53.2144 18.342 54.5164 18.342Z" fill="#32C5E0"/>
</svg>
