<svg width="131" height="79" viewBox="0 0 131 79" fill="none" xmlns="http://www.w3.org/2000/svg">
<g filter="url(#filter0_d_1725_1311)">
<rect x="18" y="18" width="91" height="39" rx="19.5" fill="white"/>
<rect x="18.25" y="18.25" width="90.5" height="38.5" rx="19.25" stroke="#D8D8D8" stroke-width="0.5"/>
</g>
<path d="M26.085 37.15C26.085 35.0213 26.5603 33.12 27.511 31.446C28.4823 29.7513 29.7947 28.439 31.448 27.509C33.122 26.5583 34.9923 26.083 37.059 26.083C39.477 26.083 41.5953 26.703 43.414 27.943C45.2327 29.183 46.5037 30.8983 47.227 33.089H42.236C41.74 32.0557 41.0373 31.2807 40.128 30.764C39.2393 30.2473 38.206 29.989 37.028 29.989C35.7673 29.989 34.641 30.2887 33.649 30.888C32.6777 31.4667 31.913 32.2933 31.355 33.368C30.8177 34.4427 30.549 35.7033 30.549 37.15C30.549 38.576 30.8177 39.8367 31.355 40.932C31.913 42.0067 32.6777 42.8437 33.649 43.443C34.641 44.0217 35.7673 44.311 37.028 44.311C38.206 44.311 39.2393 44.0527 40.128 43.536C41.0373 42.9987 41.74 42.2133 42.236 41.18H47.227C46.5037 43.3913 45.2327 45.117 43.414 46.357C41.616 47.5763 39.4977 48.186 37.059 48.186C34.9923 48.186 33.122 47.721 31.448 46.791C29.7947 45.8403 28.4823 44.528 27.511 42.854C26.5603 41.18 26.085 39.2787 26.085 37.15ZM75.4549 26.362V48H71.1149V33.926L65.3179 48H62.0319L56.2039 33.926V48H51.8639V26.362H56.7929L63.6749 42.451L70.5569 26.362H75.4549ZM90.7198 48.217C88.6944 48.217 86.8344 47.7417 85.1398 46.791C83.4451 45.8403 82.1018 44.528 81.1098 42.854C80.1178 41.1593 79.6218 39.2477 79.6218 37.119C79.6218 35.011 80.1178 33.12 81.1098 31.446C82.1018 29.7513 83.4451 28.4287 85.1398 27.478C86.8344 26.5273 88.6944 26.052 90.7198 26.052C92.7658 26.052 94.6258 26.5273 96.2998 27.478C97.9944 28.4287 99.3274 29.7513 100.299 31.446C101.291 33.12 101.787 35.011 101.787 37.119C101.787 39.2477 101.291 41.1593 100.299 42.854C99.3274 44.528 97.9944 45.8403 96.2998 46.791C94.6051 47.7417 92.7451 48.217 90.7198 48.217ZM90.7198 44.342C92.0218 44.342 93.1688 44.0527 94.1608 43.474C95.1528 42.8747 95.9278 42.0273 96.4858 40.932C97.0438 39.8367 97.3228 38.5657 97.3228 37.119C97.3228 35.6723 97.0438 34.4117 96.4858 33.337C95.9278 32.2417 95.1528 31.4047 94.1608 30.826C93.1688 30.2473 92.0218 29.958 90.7198 29.958C89.4178 29.958 88.2604 30.2473 87.2478 30.826C86.2558 31.4047 85.4808 32.2417 84.9228 33.337C84.3648 34.4117 84.0858 35.6723 84.0858 37.119C84.0858 38.5657 84.3648 39.8367 84.9228 40.932C85.4808 42.0273 86.2558 42.8747 87.2478 43.474C88.2604 44.0527 89.4178 44.342 90.7198 44.342Z" fill="#32C5E0"/>
<defs>
<filter id="filter0_d_1725_1311" x="0" y="0" width="131" height="79" filterUnits="userSpaceOnUse" color-interpolation-filters="sRGB">
<feFlood flood-opacity="0" result="BackgroundImageFix"/>
<feColorMatrix in="SourceAlpha" type="matrix" values="0 0 0 0 0 0 0 0 0 0 0 0 0 0 0 0 0 0 127 0" result="hardAlpha"/>
<feOffset dx="2" dy="2"/>
<feGaussianBlur stdDeviation="10"/>
<feComposite in2="hardAlpha" operator="out"/>
<feColorMatrix type="matrix" values="0 0 0 0 0 0 0 0 0 0 0 0 0 0 0 0 0 0 0.25 0"/>
<feBlend mode="normal" in2="BackgroundImageFix" result="effect1_dropShadow_1725_1311"/>
<feBlend mode="normal" in="SourceGraphic" in2="effect1_dropShadow_1725_1311" result="shape"/>
</filter>
</defs>
</svg>
